<?xml version="1.0" standalone="no"?>
<!DOCTYPE svg PUBLIC "-//W3C//DTD SVG 1.1//EN" "http://www.w3.org/Graphics/SVG/1.1/DTD/svg11.dtd" >
<svg xmlns="http://www.w3.org/2000/svg">
<metadata>Generated by IcoMoon</metadata>
<defs>
<font id="TAIcons" horiz-adv-x="512">
<font-face units-per-em="512" ascent="480" descent="-32" />
<missing-glyph horiz-adv-x="512" />
<glyph unicode="&#x20;" d="" horiz-adv-x="256" />
<glyph unicode="&#xe600;" d="M256-27.077c-138.437 0-251.077 112.63-251.077 251.077s112.64 251.077 251.077 251.077 251.077-112.64 251.077-251.077-112.63-251.077-251.077-251.077zM256 465.231c-133.012 0-241.231-108.219-241.231-241.231 0-133.022 108.219-241.231 241.231-241.231 133.022 0 241.231 108.209 241.231 241.231 0 133.012-108.209 241.231-241.231 241.231zM256.443 96.935l-5.051 17.389c-2.274 7.818-19.131 30.228-44.632 47.055-3.929 2.589-8.173 5.149-12.514 7.798-24.813 15.055-55.68 33.792-55.404 73.531 0.335 49.123 30.936 74.831 60.987 74.831 22.823 0 43.264-13.558 56.133-36.776 12.672 22.361 33.546 35.88 56.339 35.88 29.066 0 60.514-22.981 60.859-73.452 0.266-38.233-27.776-55.798-52.539-71.296-5.327-3.338-10.515-6.587-15.232-9.945-23.827-17.005-42.565-39.827-44.495-47.469l-4.45-17.546zM199.827 307.692c-24.418 0-50.846-20.352-51.141-65.043-0.237-34.156 26.801-50.57 50.668-65.053 4.46-2.698 8.803-5.337 12.829-7.995 19.23-12.682 35.85-30.050 43.944-42.87 8.409 12.967 25.945 30.7 43.539 43.264 4.864 3.476 10.221 6.824 15.724 10.269 23.67 14.818 48.147 30.149 47.911 62.877-0.296 43.747-26.654 63.675-51.013 63.675-21.76 0-41.62-14.995-51.82-39.139l-4.519-10.683-4.539 10.673c-10.663 25.059-29.942 40.025-51.584 40.025z" />
<glyph unicode="&#xe601;" d="M256 470.154c-135.946 0-246.154-110.208-246.154-246.154s110.198-246.154 246.154-246.154c135.946 0 246.154 110.198 246.154 246.154s-110.208 246.154-246.154 246.154zM302.533 165.967c-23.69-16.906-43.973-40.625-46.415-50.274-2.856 9.817-21.071 32.916-46.641 49.792-26.387 17.398-66.018 33.674-65.713 77.194 0.542 79.262 83.131 95.183 112.187 26.899 27.717 65.555 111.744 53.012 112.286-26.427 0.305-43.53-39.808-58.722-65.704-77.184z" />
<glyph unicode="&#xe602;" d="M256.886 3.387l-10.102 34.816c-4.549 15.616-38.262 60.456-89.265 94.11-7.838 5.159-16.345 10.26-25.029 15.577-49.644 30.11-111.36 67.603-110.808 147.062 0.65 98.245 61.873 149.681 121.955 149.681 45.647 0 86.548-27.117 112.266-73.551 25.344 44.721 67.072 71.779 112.68 71.779 58.132 0 121.029-45.962 121.718-146.904 0.531-76.465-55.533-111.577-105.039-142.572-10.693-6.695-21.051-13.194-30.503-19.889-47.656-34.009-85.11-79.656-88.99-94.957l-8.881-35.151z" />
<glyph unicode="&#xe603;" d="M399.104-30.567l-1.843 0.103c-12.101 0.632-18.688 5.546-23.978 9.489l-1.433 1.058-114.927 93.594-110.899-94.072c-5.325-4.113-11.981-9.233-24.918-9.899-0.034 0-0.069 0-0.12 0-9.386 0-20.514 4.625-26.198 13.414-5.137 7.424-5.922 14.455-6.008 19.729 0.069 6.298 1.246 11.111 2.509 15.411l43.213 141.704c-0.069 1.399-1.041 3.618-1.724 4.386l0.017 0.017-110.848 72.892c-3.242 2.15-7.441 5.206-11.418 9.916-3.891 4.762-8.243 11.435-8.499 21.965-0.153 7.099 2.611 14.848 7.219 20.207 3.191 3.909 7.305 7.031 12.459 9.352 7.817 3.311 14.268 3.653 19.729 3.721l138.035 0.068c-0.154 0 0.717 0.341 1.468 0.922 0.87 0.649 1.434 1.399 1.57 1.707l39.782 143.087c1.314 4.693 3.055 9.847 6.912 15.582 3.584 5.359 11.81 14.421 26.607 14.745 15.224-0.375 23.433-9.387 27-14.728 3.515-5.154 5.325-9.916 6.912-15.446l39.97-143.685c0.017 0.137 0.512-0.563 1.246-1.109 0.938-0.717 1.809-1.058 2.099-1.109l137.472-0.017c5.445 0 9.831-0.529 14.233-1.741 5.717-1.673 12.185-4.301 18.159-11.452 4.522-5.342 7.219-13.073 7.031-20.139-0.222-10.462-4.574-17.135-8.312-21.777-3.993-4.727-8.072-7.731-11.52-10.053l-110.695-73.011c-0.068-0.171-0.819-1.877-0.87-2.577l48.521-142.745c1.502-4.625 2.885-9.728 2.986-16.367-0.12-5.649-0.938-12.766-6.383-20.344-5.632-8.329-16.64-12.8-24.559-12.8zM256.785 90.471c4.181 0 8.431-1.416 11.077-3.704l115.575-94.055c4.676-3.481 7.765-5.786 15.309-6.195l0.341-8.55v8.534c3.226 0 8.448 2.355 10.565 5.478 2.952 4.113 3.243 7.493 3.311 10.632-0.068 3.823-0.904 7.168-2.116 10.94l-48.555 142.421c-0.495 1.263-0.819 3.175-0.819 5.291-0.461 6.469 4.25 15.462 9.711 17.92l109.415 72.294c3.515 2.355 5.803 4.318 7.834 6.725 2.099 2.594 4.284 5.735 4.403 11.298 0.086 2.918-1.195 6.571-3.038 8.755-3.226 3.874-6.451 5.052-9.745 6.024-2.748 0.734-5.666 1.075-9.591 1.075l-137.933 0.069c-0.017 0-0.017 0-0.017 0-3.789 0-8.397 1.775-11.93 4.539-3.498 2.577-6.57 6.81-7.441 10.394l-39.885 143.343c-1.178 4.079-2.355 7.168-4.642 10.547-2.168 3.225-6.11 7.048-12.869 7.219-6.298-0.154-10.257-3.994-12.407-7.185-2.389-3.55-3.55-6.707-4.642-10.667l-39.919-143.496c-0.751-3.294-3.857-7.595-7.595-10.326-3.328-2.594-7.953-4.369-11.589-4.369l-138.087-0.069c-5.035-0.068-8.636-0.443-13.005-2.287-1.672-0.751-4.079-2.065-6.195-4.659-1.997-2.338-3.311-6.007-3.242-8.892 0.119-5.547 2.321-8.687 4.557-11.435 1.98-2.338 4.25-4.284 7.714-6.588l111.155-73.25c4.796-1.877 9.489-12.237 8.977-18.875 0.017-1.382-0.256-3.14-0.802-4.693l-43.077-141.261c-1.041-3.533-1.758-6.707-1.792-10.462 0.051-2.748 0.341-6.264 3.123-10.308 2.201-3.397 7.578-5.888 10.82-5.888 8.055 0.409 11.144 2.799 15.804 6.4l1.673 1.28 108.288 92.245c2.594 2.27 6.963 3.789 11.281 3.789z" />
<glyph unicode="&#xe604;" d="M68.266 276.002c-28.297 0-51.2-22.835-51.2-51.097 0-28.246 22.904-51.081 51.2-51.081s51.2 22.835 51.2 51.081c0 28.262-22.886 51.097-51.2 51.097zM221.867 223.71h273.067v17.049h-273.067v-17.049zM68.266 429.125c-28.297 0-51.2-22.835-51.2-51.098 0-28.228 22.904-51.080 51.2-51.080s51.2 22.852 51.2 51.081c0 28.245-22.886 51.097-51.2 51.097zM68.266 121.019c-28.297 0-51.2-22.853-51.2-51.081s22.904-51.063 51.2-51.063 51.2 22.835 51.2 51.063-22.886 51.081-51.2 51.081zM221.867 394.36v-17.050h273.067v17.050h-273.067zM221.867 53.043h273.067v17.067h-273.067v-17.067z" />
<glyph unicode="&#xe605;" d="M426.035 396.834h-3.909v37.803c0 20.293-16.521 36.813-36.796 36.813-20.293 0-36.813-16.503-36.813-36.813v-37.803h-55.535v37.803c0 20.293-16.52 36.813-36.796 36.813s-36.796-16.503-36.796-36.813v-37.803h-55.552v37.803c0 20.293-16.504 36.813-36.779 36.813-20.293 0-36.796-16.503-36.796-36.813v-37.803h-4.284c-38.008 0-68.915-30.907-68.915-68.933v-282.419c0-38.007 30.907-68.95 68.915-68.95h340.070c37.974 0 68.881 30.942 68.881 68.95v282.419c0 38.024-30.908 68.933-68.898 68.933zM369.186 434.637c0 8.892 7.253 16.145 16.145 16.145s16.128-7.236 16.128-16.145v-86.681c0-8.909-7.236-16.128-16.128-16.128s-16.145 7.219-16.145 16.128v86.681zM240.060 434.637c0 8.892 7.237 16.145 16.128 16.145s16.128-7.236 16.128-16.145v-86.681c0-8.909-7.236-16.128-16.128-16.128s-16.128 7.219-16.128 16.128v86.681zM110.916 434.637c0 8.892 7.254 16.145 16.145 16.145s16.128-7.236 16.128-16.145v-86.681c0-8.909-7.237-16.128-16.128-16.128s-16.145 7.236-16.145 16.145v86.665zM474.283 45.483c0-26.607-21.658-48.231-48.231-48.231h-340.070c-26.607 0-48.23 21.64-48.23 48.231v201.438h436.531v-201.438zM474.283 267.571h-436.548v60.33c0 26.607 21.641 48.264 48.231 48.264h4.284v-28.194c0-20.275 16.504-36.813 36.796-36.813 20.275 0 36.779 16.52 36.779 36.813v28.194h55.552v-28.194c0-20.275 16.52-36.813 36.795-36.813s36.796 16.52 36.796 36.813v28.194h55.535v-28.194c0-20.275 16.52-36.813 36.813-36.813 20.275 0 36.796 16.52 36.796 36.813v28.194h3.909c26.59 0 48.231-21.675 48.231-48.264v-60.33zM424.875 210.944h-334.319v-167.202h334.319v167.202zM155.050 64.409h-43.827v50.995h43.827v-50.995zM155.050 136.106h-43.827v54.204h43.827v-54.204zM217.054 64.409h-41.335v50.995h41.335v-50.995zM217.054 136.106h-41.335v54.204h41.335v-54.204zM279.040 64.409h-41.335v50.995h41.335v-50.995zM279.040 136.106h-41.335v54.204h41.335v-54.204zM341.026 64.409h-41.319v50.995h41.318v-50.995zM341.026 136.106h-41.319v54.204h41.318v-54.204zM404.224 64.409h-42.53v50.995h42.53v-50.995zM404.224 136.106h-42.53v54.204h42.53v-54.204z" />
<glyph unicode="&#xe606;" d="M256.886 3.387l-10.102 34.816c-4.549 15.616-38.262 60.456-89.265 94.11-7.838 5.159-16.345 10.26-25.029 15.577-49.644 30.11-111.36 67.603-110.808 147.062 0.65 98.245 61.873 149.681 121.955 149.681 45.647 0 86.548-27.117 112.266-73.551 25.344 44.721 67.072 71.779 112.68 71.779 58.132 0 121.029-45.962 121.718-146.904 0.531-76.465-55.533-111.577-105.039-142.572-10.693-6.695-21.051-13.194-30.503-19.889-47.656-34.009-85.11-79.656-88.99-94.957l-8.881-35.151zM143.655 424.921c-48.817 0-101.691-40.704-102.262-130.088-0.472-68.293 53.602-101.139 101.337-130.087 8.921-5.376 17.625-10.654 25.679-15.971 38.459-25.384 71.719-60.12 87.906-85.76 16.817 25.954 51.87 61.421 87.060 86.548 9.728 6.971 20.461 13.647 31.469 20.539 47.341 29.656 96.296 60.298 95.803 125.755-0.571 87.493-53.307 127.37-102.026 127.37-43.52 0-83.24-29.991-103.64-78.296l-9.039-21.366-9.078 21.346c-21.366 50.058-59.923 80.010-103.208 80.010z" />
<glyph unicode="&#xe607;" d="M255.861 468.294c-89.972 0-162.792-70.935-162.792-158.231 0-99.398 74.077-135.098 100.957-173.568 26.904-38.447 57.088-109.778 61.835-156.765 2.49 47.081 31.162 112.687 60.416 156.765 29.231 44.055 102.68 86.249 102.68 173.568-0.024 87.296-73.123 158.232-163.095 158.232zM256 359.331c26.717 0 48.43-21.015 48.43-46.965 0-25.949-21.714-46.987-48.43-46.987s-48.407 21.038-48.407 46.988c-0.024 25.949 21.667 46.964 48.407 46.964z" />
<glyph unicode="&#xe608;" d="M191.488 312.593h-53.624v-87.501h53.624v-257.041h103.082v258.151h71.902l7.663 86.392h-79.565c0 0 0 32.273 0 49.203 0 20.394 4.096 28.467 23.791 28.467 15.855 0 55.791 0 55.791 0v89.668c0 0-58.795 0-71.373 0-76.697 0-111.291-33.775-111.291-98.441 0-56.32 0-68.898 0-68.898z" />
<glyph unicode="&#xe609;" d="M288.426 0.734h-86.698c-4.71 0-8.534 3.823-8.534 8.534v207.138h-36.54c-4.71 0-8.534 3.823-8.534 8.534v73.404c0 4.711 3.823 8.534 8.534 8.534h36.557v49.288c0 60.45 34.373 91.102 102.127 91.102h60.024c4.711 0 8.534-3.823 8.534-8.534v-75.23c0-4.711-3.823-8.534-8.534-8.534h-46.916c-9.267 0-11.469 0-11.469-15.326v-32.768h58.385c2.389 0 4.676-1.007 6.298-2.782s2.423-4.13 2.202-6.502l-6.434-72.517c-0.392-4.403-4.079-7.783-8.499-7.783h-51.968v-208.025c0-4.711-3.806-8.534-8.534-8.534zM210.262 17.8h69.632v208.025c0 4.71 3.823 8.534 8.534 8.534h52.668l4.915 55.433h-57.583c-4.711 0-8.534 3.823-8.534 8.534v41.301c0 16.827 3.464 32.392 28.536 32.392h38.383v58.18h-51.49c-58.026 0-85.060-23.518-85.060-74.035v-57.839c0-4.711-3.823-8.534-8.534-8.534h-36.54v-56.337h36.557c4.71 0 8.534-3.823 8.534-8.534v-207.121z" />
<glyph unicode="&#xe60a;" d="M511.949 382.754c-18.841-8.346-39.082-13.995-60.313-16.555 21.675 13.005 38.332 33.587 46.166 58.112-20.275-12.032-42.769-20.787-66.68-25.481-19.149 20.394-46.455 33.16-76.663 33.16-67.789 0-117.624-63.266-102.298-128.973-87.296 4.403-164.677 46.216-216.457 109.755-27.512-47.207-14.285-108.954 32.495-140.202-17.221 0.529-33.416 5.274-47.565 13.142-1.143-48.674 33.724-94.157 84.224-104.311-14.763-4.010-30.959-4.915-47.411-1.775 13.363-41.728 52.156-72.089 98.099-72.926-44.151-34.594-99.772-50.074-155.477-43.503 46.489-29.781 101.683-47.173 160.99-47.173 194.987 0 305.152 164.659 298.496 312.406 20.514 14.762 38.315 33.246 52.394 54.323z" />
<glyph unicode="&#xe60b;" d="M170.547 27.733c-53.078 0-104.79 15.19-149.521 43.947-3.345 2.134-4.761 6.315-3.413 10.053 1.349 3.738 5.206 6.041 9.029 5.598 40.38-4.762 81.578 4.318 115.968 25.241-34.219 8.448-62.379 34.116-73.455 68.762-0.888 2.85-0.239 5.99 1.758 8.243 1.997 2.253 4.984 3.26 7.987 2.731 1.382-0.273 2.765-0.495 4.165-0.7-29.287 19.029-48.264 52.377-47.428 88.252 0.069 2.986 1.706 5.717 4.301 7.202 2.594 1.485 5.785 1.502 8.397 0.034 3.431-1.912 7.014-3.584 10.684-5-25.942 32.546-30.567 78.899-8.653 116.565 1.4 2.44 3.908 4.010 6.707 4.233 2.919 0.239 5.529-0.956 7.287-3.123 44.271-54.459 108.63-88.746 177.903-95.147-3.294 27.375 4.369 54.784 21.777 76.697 19.661 24.747 49.033 38.946 80.572 38.946 26.743 0 52.634-10.565 71.817-29.15 18.603 4.165 36.352 11.23 52.822 21.026 3.055 1.809 6.878 1.553 9.677-0.648 2.782-2.202 3.909-5.888 2.833-9.267-4.062-12.783-10.547-24.542-19.012-34.696 6.861 2.116 13.585 4.625 20.156 7.543 3.464 1.519 7.543 0.597 9.984-2.304 2.457-2.901 2.68-7.082 0.58-10.24-12.459-18.671-27.767-34.969-45.568-48.486 2.031-73.967-27.221-149.811-78.762-203.742-51.678-54.016-120.337-82.568-198.588-82.568zM60.399 69.359c34.355-16.128 71.868-24.559 110.149-24.559 92.826 0 152.507 42.035 186.214 77.295 49.459 51.729 77.090 124.894 73.899 195.738-0.12 2.867 1.195 5.615 3.515 7.288 9.933 7.202 19.063 15.326 27.324 24.286-9.284-2.509-18.791-4.369-28.399-5.512-3.925-0.478-7.783 1.894-9.096 5.7-1.297 3.806 0.239 8.005 3.687 10.087 11.059 6.639 20.377 15.582 27.409 26.095-12.783-5.512-26.112-9.642-39.834-12.356-2.867-0.546-5.871 0.393-7.868 2.543-16.469 17.562-38.759 27.239-62.788 27.239-26.317 0-50.808-11.845-67.209-32.495-16.521-20.805-22.562-47.565-16.555-73.438 0.615-2.611-0.034-5.342-1.758-7.407-1.707-2.065-4.267-3.26-6.981-3.055-73.779 3.704-143.19 37.103-192.461 92.16-15.019-37.274-2.218-81.067 32.069-104.055 3.174-2.134 4.54-6.076 3.379-9.711s-4.472-6.246-8.397-5.905c-11.367 0.358-22.614 2.628-33.194 6.639 5.051-35.038 32.426-64.819 68.165-72.038 3.874-0.785 6.707-4.13 6.827-8.089 0.137-3.959-2.475-7.475-6.281-8.517-10.257-2.782-20.889-3.976-31.573-3.498 14.216-28.091 42.922-46.558 75.11-47.138 3.601-0.068 6.775-2.389 7.936-5.82s0.017-7.185-2.816-9.421c-31.625-24.849-70.451-39.56-110.472-42.053z" />
<glyph unicode="&#xe60c;" d="M460.493 369.374c-0.034 0-0.051-0.017-0.086-0.017-0.325 0.034-0.563 0.29-0.887 0.29h-407.057c-0.136 0-0.239-0.119-0.376-0.119-0.205 0-0.376 0.119-0.597 0.119-4.71 0-8.534-3.823-8.534-8.534v-274.193c0-4.711 3.823-8.534 8.534-8.534h409.002c4.711 0 8.534 3.823 8.534 8.534v273.92c0 4.711-3.806 8.534-8.534 8.534zM434.381 352.563l-178.535-136.943-178.262 136.943h356.796zM60.041 95.437v249.088l190.601-146.432c1.536-1.178 3.362-1.775 5.206-1.775s3.653 0.598 5.189 1.758l190.942 146.449v-249.105h-391.936z" />
<glyph unicode="&#xe60d;" d="M460.083 78.95h-408.166c-4.71 0-8.534 3.823-8.534 8.534v228.267c0 3.208 1.809 6.161 4.676 7.611 2.867 1.434 6.331 1.178 8.909-0.717l199.731-146.466 198.315 146.449c2.611 1.911 6.058 2.185 8.909 0.751 2.867-1.451 4.676-4.403 4.676-7.612v-228.267c0.017-4.728-3.806-8.55-8.517-8.55zM256.717 201.267c-1.775 0-3.55 0.546-5.052 1.673l-204.8 150.75c-2.969 2.185-4.199 6.024-3.055 9.523 1.144 3.516 4.42 5.871 8.107 5.871h408.166c3.687 0 6.946-2.355 8.106-5.854 1.144-3.499-0.068-7.339-3.021-9.541l-203.367-150.733c-1.519-1.127-3.311-1.69-5.086-1.69z" />
<glyph unicode="&#xe60e;" d="M426.053 396.817h-3.909v37.82c0 20.309-16.538 36.813-36.796 36.813-20.293 0-36.796-16.487-36.796-36.813v-37.803h-55.569v37.803c0 20.309-16.503 36.813-36.762 36.813-20.31 0-36.813-16.487-36.813-36.813v-37.803h-55.552v37.803c0 20.309-16.504 36.813-36.779 36.813-20.293 0-36.813-16.487-36.813-36.813v-37.803h-4.266c-38.008 0-68.898-30.908-68.898-68.95v-282.368c0-38.041 30.907-68.933 68.898-68.933h340.070c37.974 0 68.864 30.907 68.864 68.933v282.351c-0.017 38.041-30.925 68.95-68.881 68.95zM369.186 434.637c0 8.892 7.271 16.145 16.162 16.145s16.128-7.253 16.128-16.145v-86.681c0-8.892-7.236-16.128-16.128-16.128s-16.162 7.236-16.162 16.128v86.681zM240.042 434.637c0 8.892 7.27 16.145 16.162 16.145s16.128-7.253 16.128-16.145v-86.681c0-8.892-7.236-16.128-16.128-16.128s-16.162 7.236-16.162 16.128v86.681zM110.916 434.637c0 8.892 7.254 16.145 16.145 16.145s16.111-7.253 16.111-16.145v-86.681c0-8.892-7.219-16.128-16.111-16.128-8.909 0-16.145 7.236-16.145 16.128v86.681zM474.283 45.5c0-26.641-21.675-48.264-48.231-48.264h-340.070c-26.607 0-48.248 21.64-48.248 48.264v201.421h436.548v-201.421zM474.283 267.589h-436.548v60.279c0 26.624 21.657 48.281 48.248 48.281h4.266v-28.194c0-20.275 16.52-36.813 36.813-36.813 20.275 0 36.779 16.521 36.779 36.813v28.211h55.552v-28.194c0-20.275 16.504-36.813 36.813-36.813 20.275 0 36.762 16.52 36.762 36.813v28.194h55.569v-28.194c0-20.275 16.503-36.813 36.796-36.813 20.275 0 36.796 16.52 36.796 36.813v28.194h3.909c26.573 0 48.231-21.658 48.231-48.281v-60.297zM424.892 210.927h-334.336v-167.202h334.336v167.202zM155.067 64.392h-43.827v50.995h43.827v-50.995zM155.067 136.072h-43.827v54.238h43.827v-54.238zM217.054 64.392h-41.319v50.995h41.319v-50.995zM217.054 136.072h-41.319v54.238h41.319v-54.238zM279.057 64.392h-41.335v50.995h41.335v-50.995zM279.057 136.072h-41.335v54.238h41.335v-54.238zM341.009 64.392h-41.301v50.995h41.301v-50.995zM341.009 136.072h-41.301v54.238h41.301v-54.238zM404.224 64.392h-42.53v50.995h42.53v-50.995zM404.224 136.072h-42.53v54.238h42.53v-54.238z" />
<glyph unicode="&#xe60f;" d="M468.846 177.364c-2.472 4.14-7.11 6.232-11.644 5.603-1.522-0.205-2.999-0.717-4.403-1.536-8.031-4.798-20.246-8.806-35.313-12.113-12.171 33.909-52.736 94.355-61.747 107.564-2.165 3.204-5.793 5.12-9.655 5.12h-181.248c-3.847 0-7.431-1.887-9.611-5.032-9.011-12.99-49.737-72.675-61.66-106.218-15.126 3.145-27.195 6.773-34.758 10.913-1.404 0.776-2.911 1.2-4.418 1.375-4.535 0.424-9.128-1.8-11.454-6.056-3.102-5.661-1.010-12.771 4.666-15.887 5.178-2.824 12.113-5.427 20.246-7.856-13.634-15.521-20.114-41.252-18.622-74.43-0.073-31.51 0.453-49.942 12.157-61.659 6.524-6.539 15.36-9.655 27.502-11.089-0.322-1.536-0.541-3.145-0.541-4.798 0-11.206 7.549-20.231 16.838-20.231h24.708c9.319 0 16.852 9.026 16.852 20.231 0 1.288-0.117 2.516-0.307 3.745h215.040c-0.19-1.229-0.307-2.457-0.307-3.745 0-11.206 7.563-20.231 16.852-20.231h24.707c9.318 0 16.852 9.026 16.852 20.231 0 1.653-0.219 3.291-0.541 4.827 12.654 1.404 22.411 4.491 29.521 11.601 12.288 12.317 13.151 32.197 13.092 60.548 1.448 32.286-5.281 58.31-18.856 73.831 8.792 2.75 16.252 5.822 22.016 9.26 5.529 3.291 7.344 10.503 4.038 16.033zM170.978 258.567h168.872c18.914-28.16 45.056-70.481 54.36-93.476-77.268-11.63-201.055-9.889-277.343 1.536 9.114 22.601 35.24 64.278 54.111 91.94zM438.257 78.738c0.058-24.166-0.966-39.234-6.261-44.514-4.14-4.14-13.941-5.822-33.836-5.822h-285.433c-15.316 0-30.12 0.629-34.757 5.281-5.032 5.062-5.368 21.109-5.34 45.597-1.214 27.517 3.701 49.166 13.517 59.45 4.301 4.52 9.465 6.714 15.74 6.803 43.608-7.651 103.424-11.834 162.669-11.834 52.268 0 103.95 3.262 143.463 10.196 0.673-0.088 1.331-0.307 2.034-0.293l1.331 0.029c4.915 0 9.187-1.945 13.063-5.998 9.831-10.255 14.995-32.095 13.81-58.894zM306.82 88.92h-104.872c-6.466 0-11.718-5.223-11.718-11.717 0-6.451 5.237-11.688 11.718-11.688h104.872c6.466 0 11.703 5.223 11.703 11.688-0.014 6.481-5.237 11.717-11.703 11.717zM188.942 290.399h52.399c18.096 0 32.827 14.731 32.827 32.827 0 18.125-14.716 32.856-32.827 32.856h-52.399c-18.11 0-32.841-14.731-32.841-32.856-0.014-18.11 14.716-32.827 32.841-32.827zM227.826 332.675h13.517c5.193 0 9.435-4.228 9.435-9.45 0-5.178-4.227-9.435-9.435-9.435h-13.517v18.886zM188.942 332.675h15.492v-18.886h-15.492c-5.193 0-9.45 4.243-9.45 9.436 0 5.222 4.243 9.45 9.45 9.45zM309.702 359.899c18.11 0 32.841 14.716 32.841 32.841v41.399c0 18.11-14.731 32.827-32.841 32.827s-32.841-14.716-32.841-32.827v-41.399c0-18.139 14.731-32.841 32.841-32.841zM300.252 434.139c0 5.193 4.243 9.421 9.45 9.421s9.45-4.213 9.45-9.421v-41.399c0-5.193-4.243-9.45-9.45-9.45s-9.45 4.243-9.45 9.45v41.399zM296.097 353.843c-10.006 0-18.125-8.148-18.125-18.14v-27.165c0-10.006 8.134-18.139 18.125-18.139h27.195c10.021 0 18.154 8.148 18.154 18.139v27.165c0 10.006-8.148 18.139-18.154 18.139h-27.195zM318.025 313.79h-16.662v16.648h16.662v-16.648zM191.869 368.75h46.534c16.384 0 29.623 13.239 29.623 29.608v33.909c0 16.354-13.239 29.594-29.623 29.594h-46.534c-16.369 0-29.623-13.239-29.623-29.594v-33.894c-0.014-16.384 13.254-29.623 29.623-29.623zM386.516 115.368c-16.325 0-29.565-13.224-29.565-29.565s13.239-29.594 29.565-29.594c16.34 0 29.565 13.253 29.565 29.594s-13.224 29.565-29.565 29.565zM124.372 115.368c-16.34 0-29.564-13.224-29.564-29.565s13.224-29.594 29.564-29.594 29.564 13.253 29.564 29.594-13.209 29.565-29.564 29.565z" />
<glyph unicode="&#xe610;" d="M395.308 248.078v105.72c0 6.042-4.886 10.928-10.913 10.928h-256.776c-6.041 0-10.927-4.886-10.927-10.928v-105.72c0-21.913 46.182-46.753 84.538-52.941 1.565-0.877 3.262-1.492 5.178-1.492 0.877 0 1.653 0.307 2.472 0.498 3.131-0.307 6.188-0.498 9.128-0.498h88.664c41.077 0.014 88.635 32.958 88.635 54.433zM316.519 342.842h56.978l0.088-93.813c-2.151-7.051-28.233-28.291-57.051-32.578v126.391zM195.467 218.426c-29.023 6.671-53.453 23.742-56.949 30.632v93.784h56.949v-124.416zM294.692 215.545h-76.683c-0.234 0-0.453 0.058-0.688 0.058v127.24h77.37v-127.298zM256 457.998c-127.897 0-175.558-37.229-175.558-60.679v-273.525c0-13.751 12.069-22.835 35.884-26.99 7.549-1.317 15.126-1.975 21.094-2.282v-8.031c0-6.041 4.886-10.942 10.913-10.942h17.759v-19.266c0-6.539 6.32-11.834 14.131-11.834s14.161 5.281 14.161 11.834v19.266h123.216v-19.266c0-6.539 6.334-11.834 14.146-11.834s14.161 5.281 14.161 11.834v19.266h17.759c6.027 0 10.913 4.901 10.913 10.942v8.031c5.925 0.307 13.546 0.966 21.094 2.282 23.815 4.154 35.884 13.224 35.884 26.99v273.525c0 23.45-47.66 60.68-175.558 60.68zM102.195 396.514c1.887 6.51 36.191 39.57 153.805 39.57s151.918-33.060 153.717-38.765l0.175-179.375c-15.462-11.103-76.010-50.644-153.893-50.644-81.978 0-139.176 39.219-153.746 50.322l-0.058 178.893zM363.71 116.070c-3.175 0.175-5.705-1.112-7.753-3.189-2.063-2.063-3.233-4.842-3.233-7.768v-7.68h-193.448v7.68c0 2.911-1.273 5.705-3.335 7.753-2.048 2.048-4.945 3.204-7.841 3.204-22.938 0-43.242 4.564-45.816 7.709l-0.014 67.028c26.448-17.305 80.545-45.392 153.732-45.392 70.466 0 126.786 29.053 153.907 46.183l0.058-66.853c-2.824-4.096-23.128-8.675-46.255-8.675zM220.643 377.483h70.744c10.869 0 19.704 8.851 19.704 19.778 0 10.942-8.836 19.793-19.704 19.793h-70.744c-10.899 0-19.734-8.835-19.734-19.793 0-10.913 8.835-19.778 19.734-19.778zM390.451 36.36h-268.902c-6.027 0-10.913-4.901-10.913-10.928v-24.488c0-6.041 4.886-10.942 10.913-10.942 6.041 0 10.928 4.901 10.928 10.942v13.517h247.062v-13.517c0-6.041 4.886-10.942 10.928-10.942 6.027 0 10.913 4.901 10.913 10.942v24.488c0 6.027-4.886 10.928-10.928 10.928zM295.746 42.635c6.027 0 10.913 4.901 10.913 10.942 0 6.027-4.886 10.942-10.913 10.942h-79.492c-6.027 0-10.913-4.915-10.913-10.942 0-6.041 4.886-10.942 10.913-10.942h79.492zM133.5 163.511c-8.207 0-19.002-10.664-19.002-18.651 0-10.284 9.377-19.5 19.851-19.5 10.504 0 19.002 8.339 19.002 18.622 0 10.313-9.347 19.529-19.851 19.529zM378.485 162.633c-10.488 0-19.002-8.324-19.002-18.637 0-10.284 8.514-18.622 19.002-18.622s19.002 8.339 19.002 18.622c0 10.298-8.514 18.637-19.002 18.637z" />
<glyph unicode="&#xe611;" d="M270.995 136.024l-50.147 116.077c-0.19 0.439-0.542 0.717-0.775 1.112l17.101 64.336 15.726-49.079c1.2-3.745 4.257-6.598 8.090-7.505l67.423-16.062c0.863-0.205 1.741-0.307 2.589-0.307 5.076 0 9.67 3.467 10.884 8.66 1.433 6.056-2.296 12.127-8.309 13.576l-61.264 14.6-23.435 73.069c-0.278 0.863-0.819 1.536-1.273 2.268l0.41 1.536c1.595 6.027-1.946 12.2-7.928 13.794-5.969 1.594-12.113-1.96-13.721-7.972l-36.762-138.226c-0.263-0.994-0.381-1.975-0.381-2.94l0.205-91.634-80.047-115.565c-3.525-5.12-2.282-12.113 2.794-15.682 1.945-1.361 4.184-2.019 6.392-2.019 3.54 0 7.022 1.683 9.201 4.827l82.066 118.492c1.316 1.901 2.018 4.14 2.018 6.451l-0.22 88.986 38.298-88.664 23.654-124.68c1.024-5.384 5.72-9.158 10.986-9.158 0.688 0 1.404 0.073 2.121 0.205 6.071 1.171 10.065 7.065 8.894 13.166l-23.874 125.938c-0.132 0.849-0.38 1.653-0.717 2.399zM395.411 352.044c-6.086 1.2-11.923-2.925-13.048-9.026l-62.478-339.705c-1.127-6.13 2.882-11.995 8.967-13.122 0.688-0.147 1.375-0.205 2.048-0.205 5.296 0 10.021 3.818 11.015 9.231l62.478 339.719c1.141 6.085-2.897 11.952-8.982 13.107zM249.549 388.235c19.163 0 34.684 15.608 34.684 34.904 0 19.251-15.536 34.889-34.685 34.889-19.178 0-34.714-15.624-34.714-34.889 0-19.295 15.536-34.904 34.714-34.904zM159.875 260.322c11.732-2.852 24.912 8.69 29.272 25.717l15.067 58.822c4.359 17.013-1.828 33.733-13.736 37.156-11.907 3.409-25.088-7.753-29.301-24.796l-14.98-60.679c-4.213-17.057 1.946-33.339 13.678-36.221z" />
<glyph unicode="&#xe612;" d="M68.266 276.036c-28.297 0-51.2-22.852-51.2-51.097s22.904-51.081 51.2-51.081c28.314 0 51.2 22.835 51.2 51.081s-22.886 51.097-51.2 51.097zM221.867 223.727h273.067v17.049h-273.067v-17.049zM68.266 429.125c-28.297 0-51.2-22.818-51.2-51.081 0-28.211 22.904-51.063 51.2-51.063 28.314 0 51.2 22.852 51.2 51.063 0 28.263-22.886 51.081-51.2 51.081zM68.266 121.037c-28.297 0-51.2-22.853-51.2-51.080s22.904-51.063 51.2-51.063c28.314 0 51.2 22.835 51.2 51.063s-22.886 51.081-51.2 51.081zM221.867 394.376v-17.049h273.067v17.049h-273.067zM221.867 53.043h273.067v17.067h-273.067v-17.067z" />
<glyph unicode="&#xe613;" d="M450.833 77.466l-97.997 98.031c-1.127 1.092-2.406 1.997-3.618 2.935 16.572 25.395 26.248 55.672 26.248 88.235 0 89.583-72.567 162.133-162.133 162.133-89.531 0-162.133-72.55-162.133-162.133 0-89.549 72.602-162.117 162.133-162.117 32.563 0 62.874 9.694 88.303 26.231 0.938-1.229 1.792-2.474 2.901-3.567l97.997-98.031c6.707-6.656 15.428-9.984 24.132-9.984 8.738 0 17.459 3.328 24.166 9.967 13.295 13.329 13.295 34.969 0 48.298zM213.333 155.767c-61.167 0-110.933 49.767-110.933 110.916s49.766 110.916 110.933 110.916c61.133 0 110.934-49.767 110.934-110.933 0-61.133-49.8-110.899-110.933-110.899z" />
<glyph unicode="&#xe614;" d="M328.604 471.694c-19.328 0-35.058-15.858-35.058-35.314v-170.368c0-10.965 5.049-21.077 13.497-27.705v-22.784c0-0.74 0.27-1.38 0.413-2.077-4.608-5.575-7.495-12.644-7.495-20.452v-184.576c0-17.707 14.308-32.128 31.886-32.128h0.626c17.579 0 31.901 14.421 31.901 32.128v427.961c0.014 19.456-15.716 35.314-35.769 35.314zM343.978 8.434c0-6.372-5.149-11.563-11.491-11.563h-0.626c-6.329 0-11.491 5.191-11.491 11.563v184.562c0 6.386 5.149 11.548 12.118 11.548 6.329 0 11.491-5.163 11.491-11.548v-184.562zM343.978 222.791c-3.74 1.479-7.808 2.333-12.118 2.333-1.507 0-2.944-0.242-4.409-0.455v19.186c0 3.854-2.119 7.353-5.518 9.131-4.921 2.574-7.993 7.566-7.993 13.014v170.382c0 8.121 6.57 14.749 15.36 14.749 8.078 0 14.649-6.627 14.649-14.749v-213.589zM251.819 447.389c-5.632 0-10.197-4.58-10.197-10.254v-157.113c0-2.19-1.778-3.968-3.954-3.968h-14.379c-5.646 0-10.197-4.622-10.197-10.297 0-0.042 0.029-0.085 0.029-0.142v-41.757c-2.745 0.739-5.603 1.251-8.605 1.251-2.745 0-5.362-0.455-7.907-1.124v41.77c0 5.661-4.565 10.297-10.197 10.297 0 0 0 0-0.014 0s0 0-0.014 0h-14.393c-2.176 0-3.968 1.778-3.968 3.968v157.113c0 5.66-4.565 10.254-10.197 10.254s-10.212-4.579-10.212-10.254v-157.113c0-13.525 10.937-24.562 24.377-24.562h4.21v-48.014c-2.204-4.38-3.57-9.23-3.57-14.464v-184.576c0-17.707 14.308-32.128 31.886-32.128h0.612c17.593 0 31.915 14.421 31.915 32.128v184.59c0 5.163-1.337 9.998-3.527 14.336v48.142h4.153c13.44 0 24.362 11.022 24.362 24.562v157.099c0 5.675-4.565 10.254-10.212 10.254zM216.619 8.434c0-6.372-5.162-11.563-11.506-11.563h-0.612c-6.329 0-11.477 5.191-11.477 11.563v184.562c0 6.386 5.149 11.548 12.089 11.548 6.343 0 11.506-5.163 11.506-11.548v-184.562zM221.099 358.813c5.632 0 10.197 4.594 10.197 10.269v68.053c0 5.661-4.565 10.254-10.197 10.254-5.646 0-10.212-4.58-10.212-10.254v-68.067c0.014-5.661 4.565-10.254 10.212-10.254zM188.53 358.813c5.646 0 10.212 4.594 10.212 10.269v68.053c0 5.661-4.566 10.254-10.212 10.254-5.632 0-10.197-4.58-10.197-10.254v-68.067c0-5.661 4.566-10.254 10.197-10.254z" />
<glyph unicode="&#xe615;" d="M256 441.054l71.834-142.899 160.598-22.904-116.258-111.223 27.461-157.099-143.633 74.171-143.65-74.171 27.443 157.099-116.224 111.224 160.597 22.904 71.834 142.899zM256 458.12v0c-6.451 0-12.357-3.635-15.257-9.404l-67.84-134.929-151.757-21.64c-6.468-0.922-11.845-5.462-13.841-11.691-1.997-6.212-0.273-13.039 4.455-17.544l109.636-104.926-25.873-148.139c-1.109-6.366 1.485-12.834 6.707-16.674 2.987-2.202 6.537-3.328 10.103-3.328 2.68 0 5.359 0.632 7.817 1.894l135.851 70.161 135.817-70.127c2.474-1.263 5.154-1.894 7.834-1.894 3.567 0 7.117 1.127 10.103 3.328 5.24 3.84 7.834 10.308 6.724 16.674l-25.907 148.139 109.671 104.926c4.711 4.522 6.451 11.333 4.454 17.545-1.997 6.229-7.373 10.752-13.841 11.69l-151.791 21.641-67.84 134.929c-2.885 5.735-8.789 9.37-15.224 9.37v0z" />
<glyph unicode="&#xe616;" d="M46.763 235.759c0.034 0.239 0.086 0.461 0.136 0.683-0.086 0.614-0.41 1.365-0.444 1.946 0.102-0.87 0.205-1.741 0.307-2.629zM467.012 219.733c0.017-0.239 0.034-0.341 0.051-0.529 0 0 0 0 0 0s-0.034 0.29-0.051 0.529zM467.063 219.187c0 0 0 0 0 0-1.297 5-2.731 9.984-3.192 13.927-1.28 11.367-4.693 15.429-10.547 24.645-3.003 4.727-7.697 6.827-10.394 11.673-3.106 5.563-2.151 12.101-5.888 17.032 0.051-1.007 0.12-2.014 0.171-3.021-1.775 1.929-4.301 3.413-6.229 5.052 0.034-1.946 0.034-3.55 0.358-5.478-5.99 4.215-6.57 13.807-8.858 20.702-1.775 5.308-5.427 9.438-9.165 13.585-4.182 4.642-10.411 4.318-15.719 9.933-3.823 4.028-4.711 6.793-5.103 9.831 1.416 0.597-0.478 1.212 0.017 2.748-0.051-0.154-0.171-0.205-0.256-0.325-0.171 2.253-0.358 4.813-1.382 8.226-2.457 8.26-5.854 13.312-7.697 21.504-2.014 8.977 0.632 12.663-7.031 18.261-5.615 4.113-12.288-0.837-12.288 10.735 0 8.704-5.154 16.009-3.277 22.921-6.264 2.304-4.199 11.69-8.022 16.214-4.147-4.608-4.983-11.161-4.898-17.425-3.942-1.109-3.909-4.471-0.171-8.517-0.29-0.683-0.546-1.348-0.819-2.014-12.92-3.464 7.851-76.339-27.358-58.232-1.724 0.888-3.106 4.984-5.069 6.503-2.611 2.031-5.735 1.143-8.431 3.737-4.659 4.454-8.943 5.99-13.995 9.643-3.772 2.747-9.558 7.543-12.442 11.144-2.731 3.43 4.796 12.407 5.922 17.049-3.43 2.543-0.307 5.786 4.079 5.257 3.055 8.55 5.803 11.93 1.297 17.851-1.399-3.192-3.567-4.591-4.25-7.731-2.628 2.731-1.229 1.997-1.297 5.086 0.495-0.785-2.509-1.024-3.277-0.205 0.785 1.297 1.212 2.747 1.467 4.249-8.892-16.998-31.778 10.001-39.458 6.076-0.41 0.546-0.87 1.092-1.297 1.638l-1.007-1.809c5.222-0.853 8.704-5.154 9.046-10.769-5.393-1.433-11.759-3.909-15.394 1.212-0.171-0.87-0.341-1.758-0.495-2.629-0.597 0.41-1.195 0.819-1.792 1.212-1.041-2.833-0.87-3.618-1.143-6.075-1.28 0.495-2.389 1.587-3.772 1.826-2.748-2.782-15.018-23.705-8.857-27.187 0.666-2.048-2.56-1.741 2.167-2.85-2.714-2.594-1.69-1.621-3.141-4.454-1.246 0.666-3.379 2.918-4.591 3.857 0.529-1.809 0.29-3.141-0.649-4.677-2.167 5.512-4.915 6.861-7.526 2.031-0.529 0.341-1.093 0.683-1.655 1.007-0.529-1.962-0.427-2.85-0.154-4.881-0.751 0.188-1.519 0.325-2.287 0.461 3.43 8.738-10.309 27.034-15.547 15.207-0.29 0.683-0.546 1.349-0.837 2.031-1.195 0.051-1.877-2.526-2.594-3.055-0.581 1.894-0.751 2.424-1.673 4.062 0.683-5.342-0.119-6.775-3.755-7.082-0.273-0.751-0.546-1.502-0.819-2.27-0.051 1.024-0.102 2.031-0.171 3.055-3.789-1.57-5.154-4.728-2.629-9.728-1.894 0.409-4.165-0.12-5.376 0.188 1.707-2.065 0.734-2.27 3.43-5.069-5.837 3.942-11.144-2.952-5.239-4.659-0.563-1.707-1.946-4.694-2.629-6.093 1.587-0.409 2.662 0.205 4.096-1.024-4.25 0.29-7.066 0.478-9.984 0-0.956 1.314-0.922 2.185-2.117 3.481-1.434-2.355-1.553-3.208-2.441-4.676 3.26-2.287 2.167-3.43 5.376-3.857-2.748-4.83-2.304-3.652-4.421-8.891-2.423 4.761-4.71 9.267-6.383 14.183-2.202-4.728-3.772-4.728-6.622-9.233-3.294-5.205 1.553-9.045 0.085-13.704-1.093-3.55-10.376-16.657-14.063-18.944-5.513-3.43-19.081-3.003-21.401-6.69-2.697-4.267-17.169-7.817-21.197-7.407-0.222 0.802-0.427 1.639-0.648 2.458-7.953-6.11-23.552-14.661-26.522-24.952-0.682 2.662-2.577 4.966-2.969 7.731-3.993-6.536-5.956-22.579-6.041-30.055-0.12-8.738 12.169-22.255 6.041-28.791-0.87 1.093-0.956 3.021-1.621 4.267-0.376-0.614-0.768-1.229-1.16-1.843-0.751 3.653-1.672 5.274-2.935 8.55 0.632-6.11 3.943-21.914-1.297-6.502-0.12-0.649-0.256-1.297-0.358-1.946 1.69-11.367 11.042-27.716 15.923-37.82 3.174-6.536 2.184-16.35 4.591-23.705 2.85-8.772 6.434-14.267 4.403-23.928-0.153 0.87-0.341 1.758-0.478 2.628 1.553-6.383 0.512-15.326-6.878-12.151-2.594-8.738 8.891-16.845 16.059-19.303 11.434-3.909 16.316 3.192 24.713 6.707 7.049 2.986 11.503 8.106 22.358 8.106 6.264 0 21.043-4.386 26.437-1.024 7.816 4.881 8.243 12.885 18.090 17.050 8.499 3.618 16.128 1.877 24.559 5.666 8.67 3.909 16.231 6.502 25.617 7.714 3.345 0.426 10.309 1.69 13.090 1.024 3.772-0.904 7.799-7.082 11.23-6.776 5.53 0.478 14.865 0.034 15.786-6.605 2.168 0.034 5.837-5.12 8.431-8.738 3.14-4.386 7.646-11.793 6.639-17.647-0.546 0.358-1.075 0.683-1.639 1.041 2.799-3.738 5.581-5.171 8.499-6.724-2.457 11.725 17.391 19.661 19.337 31.863 3.26-12.766-4.438-27.017-9.336-35.481 9.625 0.392 8.806 6.776 12.766 14.183 4.403-5.445 5.615-12.971-0.171-17.664 4.352-0.666 9.165 1.28 12.937 2.048-1.809-2.099-0.938-1.536-2.304-3.43 1.297-1.382 2.373-2.867 3.481-4.335 7.834-11.23 1.622-21.999 19.115-28.928 2.68-1.058 12.561-4.522 18.159-5.086 8.397-0.837 9.591 0.103 17.015 6.502-0.819 0.068-1.639 0.154-2.457 0.222 1.741 0.887 3.67 1.826 5.24 3.021-0.955-5.308 1.792-2.68-2.116-6.041 7.236 1.656 11.673-3.806 17.357-10.36 0.222-0.392 0.461 4.182 0.478 4.284-2.543 0.171-0.051-1.724-2.287 1.007 9.916-0.222 12.919 10.872 22.596 11.861 15.070 1.553 14.336 1.587 17.339 15.497 3.464 16.111 10.223 34.799 18.671 48.060 5.462 8.584 10.12 12.527 13.107 23.74 2.287 8.567 4.027 20.634 5.82 29.901 0.819 4.403-0.478 10.377-2.014 16.333zM442.931 269.432c2.577 3.413 0.017 0.034 0 0v0zM248.132 432.060c1.093-2.765 0.956-2.423 0 0v0zM290.202 427.81c0.921 1.297 1.246 2.68 1.962 4.062-0.734-1.434-1.69-2.594-1.962-4.062zM234.888 431.257c-1.655-1.604-3.447-2.901-9.011-1.024 1.399-12.902 15.736-5.427 9.011 1.024zM224.887 429.209c-1.041-1.621-2.423-4.284-2.782-6.058 2.304-0.307 4.181 0.102 6.213 0.802-0.973 1.861-2.901 2.68-3.43 5.257zM289.57 427.639c-0.973-0.99-1.792-1.911-2.969-2.68 1.331 0.393 1.894 1.553 2.969 2.68zM290.68 398.797c-4.062-10.462 6.11-7.561 0 0v0zM171.025 389.069c-0.887-2.782-0.87-2.765 0 0v0zM321.792 363.537c-1.911-1.724-3.55-1.195-4.267-4.267 4.676 1.536 4.13 3.669 4.267 4.267zM68.694 307.78c-1.058-2.56-1.058-2.577 0 0v0zM463.24 241.63c1.894 4.591 2.714 9.285 2.474 14.2-2.116-4.677-3.277-9.079-2.474-14.2zM45.142 255.044c-0.307-3.26-0.307-3.311 0 0v0zM44.459 251.375c-0.273-3.482-0.273-3.516 0 0v0zM45.295 237.807c0.307 2.679-1.502 3.909-2.611 6.28 1.024-2.15 1.212-4.267 2.611-6.28zM466.517 224.205c0.785-3.038 0.785-3.021 0 0v0zM301.159 114.705c-3.413 0.017-7.373-1.485-10.479-2.867 4.113-5.12 10.957-3.67 15.24 0.632-3.789-1.997-2.646 1.229-4.762 2.236zM382.038 77.346c-0.58-0.837-1.775-2.509 0 0v0zM367.291 55.859c4.062 1.553 1.639 3.209 1.485 6.519-0.649-2.338-2.833-3.021-1.485-6.519zM409.054 60.553c0.375-1.775 0.034-4.096 2.287-6.707 3.704 3.755 0.137 3.84-2.287 6.707zM402.022 44.339c-8.943-0.973-14.267 1.195-25.054 3.635-4.13-7.936 3.294-14.814 6.553-21.88-0.768 0.12-1.536 0.273-2.304 0.375 1.502-5.803 4.591-10.854 10.154-12.766-0.717-0.205-1.433-0.392-2.134-0.598 5.137-3.789 11.332-3.618 10.649 3.84 1.775 1.178 1.69-1.314 2.952 4.267 1.092-0.29 1.656-2.543 2.611-3.055 0.222 0.819 0.426 1.622 0.649 2.44-0.051 0.137 2.799-2.68 2.952-2.816-0.768-0.154-1.536-0.29-2.304-0.426 0.068-0.034 3.925-2.543 3.618-2.014-1.229 5.82-1.622 13.824 3.772 13.585-2.27 15.685 1.997 16.93-12.118 15.411zM402.329 13.892c0.017-2.491 0.034-2.833 0 0v0z" />
<glyph unicode="&#xe617;" d="M487.969 362.769h-32.553v44.032c0 7.317-5.897 13.229-13.213 13.229h-115.266c-7.284 0-13.197-5.896-13.197-13.229v-44.032h-289.709c-7.284 0-13.213-5.913-13.213-13.213v-308.389c0-7.284 5.913-13.197 13.213-13.197h463.938c7.284 0 13.213 5.897 13.213 13.197v308.406c0 7.284-5.93 13.197-13.213 13.197zM340.166 393.604h88.841v-25.831h-88.841v25.831zM474.74 54.396h-437.495v281.964h437.495v-281.964zM256 65.346c71.697 0 130.031 58.318 130.031 130.031 0 71.697-58.335 130.015-130.031 130.015-71.713 0-130.031-58.319-130.031-130.015 0-71.713 58.319-130.031 130.031-130.031zM256 298.966c57.13 0 103.606-46.444 103.606-103.589 0-57.13-46.476-103.589-103.606-103.589-57.146 0-103.606 46.46-103.606 103.589 0 57.146 46.46 103.589 103.606 103.589zM263.118 205.072c7.829-2.081 16.549-0.81 26.211 3.832l11.231 5.401c3.865-8.077 18.317-44.445-3.815-89.649-2.774-5.649 7.581 11.99 12.502 20.133 4.938 8.077 8.985 17.012 12.139 26.805 3.105 9.514 4.822 19.489 5.17 29.927 0.38 10.405-1.883 20.678-6.722 30.769-6.887 14.32-15.344 24.477-25.336 30.506-9.976 5.979-21.669 5.813-35.063-0.661-8.589-4.112-13.94-10.19-16.137-18.25-2.163-8.027-1.685-15.344 1.47-21.851 4.427-9.216 10.537-14.848 18.35-16.962z" />
<glyph unicode="&#xe618;" d="M411.087 332.131c-14.584-15.112-28.375-29.365-51.877-29.365-23.188 0-36.913 14.171-51.447 29.234-14.154 14.583-28.755 29.729-51.762 29.729-22.792 0-37.327-15.046-51.349-29.597-14.601-15.112-28.375-29.365-51.877-29.365-23.189 0-36.913 14.171-51.447 29.234-14.154 14.583-28.771 29.729-51.761 29.729v-19.704c14.832 0 25.534-11.049 37.904-23.817 15.921-16.483 33.974-35.146 65.305-35.146 31.661 0 49.78 18.762 65.734 35.311 12.255 12.701 22.858 23.667 37.491 23.667 14.832 0 25.534-11.049 37.904-23.816 15.905-16.483 33.957-35.147 65.305-35.147 31.678 0 49.779 18.762 65.718 35.312 12.272 12.701 22.858 23.667 37.508 23.667v19.671c-22.793 0-37.327-15.046-51.349-29.597zM411.087 233.744c-14.584-15.112-28.375-29.382-51.877-29.382-23.188 0-36.913 14.188-51.447 29.233-14.138 14.633-28.755 29.745-51.762 29.745-22.792 0-37.327-15.030-51.349-29.581-14.601-15.112-28.375-29.382-51.877-29.382-23.189 0-36.913 14.188-51.447 29.233-14.138 14.633-28.771 29.745-51.761 29.745v-19.687c14.832 0 25.534-11.033 37.904-23.833 15.921-16.466 33.974-35.13 65.305-35.13 31.661 0 49.78 18.762 65.734 35.312 12.255 12.685 22.858 23.667 37.491 23.667 14.832 0 25.534-11.033 37.904-23.833 15.905-16.466 33.957-35.13 65.305-35.13 31.678 0 49.779 18.762 65.718 35.312 12.272 12.685 22.858 23.667 37.508 23.667v19.687c-22.793-0.066-37.327-15.095-51.349-29.646zM411.087 135.341c-14.584-15.079-28.375-29.365-51.877-29.365-23.188 0-36.913 14.188-51.447 29.233-14.138 14.617-28.755 29.745-51.762 29.745-22.792 0-37.327-15.046-51.349-29.597-14.601-15.079-28.375-29.365-51.877-29.365-23.189 0-36.913 14.188-51.447 29.233-14.138 14.617-28.771 29.745-51.761 29.745v-19.704c14.832 0 25.534-11.033 37.904-23.8 15.921-16.483 33.974-35.147 65.305-35.147 31.661 0 49.78 18.762 65.734 35.295 12.255 12.701 22.858 23.668 37.491 23.668 14.832 0 25.534-11.033 37.904-23.8 15.905-16.483 33.957-35.147 65.305-35.147 31.678 0 49.779 18.762 65.718 35.295 12.272 12.701 22.858 23.668 37.508 23.668v19.704c-22.793-0.066-37.327-15.113-51.349-29.663z" />
<glyph unicode="&#xe619;" d="M406.396 395.322c5.913 0 11.313-1.8 15.113-5.615 9.53-9.563 6.557-29.217-6.029-41.819l-73.348-73.447 32.62-151.585c3.419-18.68 1.8-30.060-19.043-47.534-3.601-3.006-6.837-4.344-9.827-4.344-11.181 0-18.548 18.796-26.921 37.954l-43.272 99.312c-28.044-26.872-54.685-49.895-76.817-66.907-4.162-3.122-5.103-8.11-4.145-12.090l10.637-49.35c1.784-9.844 0.941-15.789-9.993-24.94-1.883-1.586-3.584-2.279-5.153-2.279-5.846 0-9.728 9.86-14.105 19.885l-17.689 41.935c-5.897-2.907-10.603-4.443-13.923-4.443-0.661 0-1.272 0.050-1.817 0.182-0.083 0.033-0.115 0.033-0.181 0.066-0.049 0.066-0.066 0.115-0.083 0.231-0.726 3.286 0.776 8.638 4.244 15.707l-41.885 17.705c-12.701 5.55-25.105 10.289-17.606 19.274 6.838 8.192 11.892 10.719 18.102 10.719 2.097 0 4.327-0.298 6.805-0.743l49.35-10.603c0.941-0.231 1.933-0.347 2.94-0.347 3.27 0 6.722 1.305 9.117 4.493 16.978 22.132 40.002 48.805 66.825 76.899l-99.179 43.289c-24.213 10.62-47.88 19.654-33.561 36.815 13.031 15.657 22.66 20.497 34.535 20.497 3.981 0 8.242-0.545 12.932-1.421l151.404-32.669 73.365 73.447c7.581 7.614 17.673 11.726 26.591 11.726zM406.396 411.838c-13.626 0-27.929-6.193-38.284-16.549l-67.006-67.072-142.583 30.753c-6.821 1.272-11.743 1.784-16.417 1.784-17.672 0-31.793-7.911-47.236-26.409-8.836-10.587-8.935-20.266-7.466-26.508 4.096-17.293 23.205-25.617 43.421-34.42l3.65-1.602 77.758-33.94c-18.994-20.661-36.022-40.613-49.945-58.582l-46.757 10.042c-4.195 0.81-7.317 1.139-10.24 1.139-14.947 0-24.311-8.902-30.786-16.665-7.085-8.473-6.508-16.632-5.516-20.745 3.055-12.899 15.393-18.25 27.334-23.437l1.867-0.81 27.912-11.809c-0.578-3.65-0.496-6.937 0.215-10.075v0c0.528-2.346 1.569-4.641 2.99-6.541 1.536-2.065 3.551-3.733 5.846-4.873 0.694-0.347 1.487-0.677 2.262-0.942 0.545-0.182 1.107-0.347 1.668-0.462 1.734-0.38 3.567-0.578 5.451-0.578 1.503 0 3.055 0.115 4.674 0.363l11.694-27.764 0.925-2.147c5.385-12.404 12.090-27.863 28.407-27.863 5.583 0 10.884 2.048 15.756 6.127 16.565 13.857 18.234 26.228 15.641 40.547l-10.224 47.351c18.035 14.005 37.921 31.017 58.5 49.978l35.526-81.524c9.43-21.702 19.159-44.164 40.448-44.164 7.053 0 13.906 2.758 20.397 8.175 26.327 22.033 28.986 39.853 24.708 63.174l-30.819 143.31 67.022 67.089c19.241 19.274 22.016 49.119 6.029 65.139-6.772 6.788-16.285 10.505-26.822 10.505v0z" />
<glyph unicode="&#xe61a;" d="M467.178 356.374c-6.949 0-12.536-5.603-12.536-12.493v-144.018c-153.63-2.195-375.223-4.111-403.748-0.936-1.741 0.907-3.715 1.433-5.822 1.433-6.919 0-12.537-5.603-12.537-12.507v-83.719c0-6.89 5.617-12.493 12.537-12.493 6.934 0 12.537 5.603 12.537 12.493v69.88c34.392-2.312 128.629-3.087 397.034 0.834v-60.255c0-6.92 5.603-12.507 12.536-12.507 6.92 0 12.507 5.603 12.507 12.507v229.274c0 6.905-5.603 12.507-12.507 12.507zM45.056 211.493h386.034c6.291 0 11.601 4.652 12.435 10.884 0.629 4.784 5.574 47.118-13.941 68.154-7.622 8.221-18.022 12.258-29.945 11.601-43.55-2.253-53.058-16.911-55.12-23.099-2.165-6.553 1.375-13.634 7.943-15.813 5.91-2.004 12.229 0.702 15.024 6.027 1.229 1.112 8.514 6.642 33.456 7.929 5.749 0.322 8.485-1.77 10.196-3.628 6.744-7.241 8.601-23.654 8.28-37.025h-361.575c0.834 6.436 2.999 14.453 8.382 20.48 5.866 6.539 14.658 9.728 26.888 9.728 47.235 0 176.786-1.58 208.165-1.99l8.909-14.424c3.628-5.881 11.366-7.724 17.262-4.096 5.88 3.613 7.738 11.337 4.111 17.218l-12.536 20.29c-2.253 3.657-6.232 5.881-10.518 5.939-1.594 0.014-161.602 2.092-215.376 2.092-19.5 0-34.846-6.086-45.583-18.11-18.183-20.29-15.082-49.781-14.936-51.039 0.702-6.349 6.071-11.118 12.449-11.118z" />
<glyph unicode="&#xe61b;" d="M99.046 300.094c2.118-1.218 4.431-1.819 6.727-1.819 4.626 0 9.127 2.384 11.617 6.673 15.307 26.288 33.315 53.337 41.137 64.848h193.66c7.503-11.264 24.435-37.058 39.371-62.782 3.743-6.409 11.917-8.581 18.344-4.855 6.409 3.725 8.58 11.953 4.873 18.344-20.303 34.922-43.379 68.855-44.368 70.267-2.507 3.672-6.656 5.879-11.087 5.879h-207.872c-4.396 0-8.528-2.154-11.035-5.773-1.042-1.483-25.6-36.97-46.221-72.421-3.725-6.391-1.553-14.619 4.855-18.361zM500.135 276.613c-3.778 6.373-12.041 8.457-18.397 4.661-67.884-40.519-389.649-33.703-451.884 0.265-6.532 3.548-14.671 1.13-18.22-5.35-3.549-6.515-1.148-14.671 5.349-18.238 5.932-3.249 13.895-6.233 23.217-9.004-15.642-17.797-23.058-47.369-21.363-85.416-0.070-36.158 0.547-57.274 13.965-70.709 7.539-7.574 17.779-11.158 31.85-12.783-0.371-1.818-0.918-3.531-0.918-5.491 0-12.836 8.651-23.199 19.333-23.199h28.337c10.681 0 19.333 10.381 19.333 23.199 0 1.519-0.494 2.842-0.724 4.272h247.314c-0.247-1.43-0.724-2.754-0.724-4.272 0-12.836 8.668-23.199 19.35-23.199h28.337c10.681 0 19.35 10.381 19.35 23.199 0 1.942-0.548 3.69-0.935 5.509 14.671 1.589 25.971 5.156 34.163 13.382 14.089 14.124 15.077 36.899 15.007 69.455 1.677 37.164-6.074 66.895-21.68 84.692 10.099 3.178 18.679 6.691 25.282 10.646 6.373 3.778 8.439 12.023 4.661 18.379zM465.037 163.461c0.053-27.736-1.094-44.986-7.185-51.077-4.731-4.767-15.961-6.692-38.788-6.692h-327.397c-17.567 0-34.551 0.724-39.865 6.055-5.773 5.808-6.162 24.24-6.127 52.33-1.413 31.55 4.237 56.409 15.483 68.219 4.961 5.173 10.911 7.733 18.167 7.768 50.017-8.757 118.572-13.542 186.474-13.542 59.904 0 119.137 3.725 164.405 11.67 0.83-0.089 1.606-0.371 2.471-0.318 6.003 0.371 11.14-1.607 15.784-6.144 11.776-11.458 17.973-36.776 16.578-68.272zM314.298 175.13h-120.32c-7.398 0-13.418-6.021-13.418-13.435s6.020-13.435 13.418-13.435h120.32c7.397 0 13.418 6.021 13.418 13.435s-6.021 13.435-13.418 13.435zM405.698 205.479c-18.732 0-33.916-15.166-33.916-33.933 0-18.732 15.183-33.933 33.916-33.933 18.75 0 33.916 15.201 33.916 33.933 0 18.75-15.166 33.933-33.916 33.933zM105.031 205.479c-18.732 0-33.898-15.166-33.898-33.933 0-18.732 15.166-33.933 33.898-33.933 18.75 0 33.916 15.201 33.916 33.933 0.018 18.75-15.166 33.933-33.916 33.933z" />
<glyph unicode="&#xe61c;" d="M342.567 311.070c-7.404 7.444-19.544 11.363-35.121 11.363-25.945 0-68.618-12.435-103.503-47.459-48.187-48.384-56.231-118.843-35.958-139.205 6.558-6.587 18.579-10.2 33.861-10.2 27.057 0 70.725 12.12 104.773 46.306 39.286 39.443 63.596 111.429 35.949 139.195zM299.461 179.053c-31.853-32-72.497-43.343-97.615-43.343-12.406 0-22.144 2.639-26.722 7.227-14.739 14.808-9.541 79.173 35.958 124.869 32.699 32.837 72.35 44.495 96.365 44.495 12.652 0 22.597-2.983 27.983-8.389 17.378-17.467 9.767-78.946-35.968-124.859zM200.458 221.716c-1.832-3.053-3.544-6.125-4.992-9.236-1.181-2.55-0.079-5.553 2.452-6.745 0.689-0.325 1.418-0.473 2.127-0.473 1.9 0 3.722 1.073 4.578 2.925 0.955 2.058 2.029 4.106 3.18 6.144l2.393-2.413c0.984-0.995 2.274-1.477 3.574-1.477s2.589 0.493 3.574 1.477c1.979 1.979 1.979 5.189 0 7.178l-3.958 3.968c2.52 3.603 5.228 7.149 8.103 10.565l5.169-5.189c0.984-0.984 2.274-1.477 3.574-1.477 1.29 0 2.589 0.502 3.565 1.477 1.979 1.979 1.979 5.199 0 7.178l-5.573 5.593c3.082 3.309 6.184 6.449 9.256 9.413l5.632-5.661c0.994-0.994 2.274-1.477 3.574-1.477 1.29 0 2.589 0.493 3.565 1.477 1.969 1.989 1.969 5.199 0 7.178l-5.346 5.376c3.643 3.259 7.070 6.173 10.053 8.606l4.608-4.628c0.995-0.994 2.284-1.477 3.574-1.477s2.589 0.493 3.584 1.477c1.969 1.979 1.969 5.189 0 7.178l-3.752 3.771c1.851 1.398 3.023 2.245 3.091 2.285 2.274 1.615 2.816 4.785 1.221 7.079-1.625 2.285-4.776 2.836-7.050 1.211-0.325-0.226-1.989-1.428-4.49-3.318l-2.747 2.757c-1.979 1.979-5.169 1.979-7.158 0-1.969-1.969-1.969-5.179 0-7.178l1.91-1.91c-3.023-2.471-6.429-5.395-10.043-8.625l-1.181 1.192c-1.979 1.979-5.169 1.979-7.149 0-1.969-1.979-1.969-5.189 0-7.178l0.916-0.925c-3.072-2.964-6.173-6.095-9.256-9.413l-0.975 0.984c-1.969 1.989-5.169 1.989-7.149 0-1.969-1.979-1.969-5.189 0-7.178l1.388-1.398c-2.865-3.387-5.602-6.882-8.182-10.486l-2.52 2.53c-1.969 1.979-5.169 1.979-7.149 0-1.979-1.979-1.979-5.189 0-7.168l4.007-3.987zM331.303 296.448c-2.698 0.65-5.445-1.005-6.115-3.712-0.286-1.162-29.824-116.49-134.065-138.575-2.727-0.591-4.48-3.269-3.899-6.016 0.502-2.383 2.6-4.017 4.933-4.017 0.345 0 0.689 0.029 1.043 0.108 110.523 23.424 141.489 144.857 141.785 146.088 0.689 2.717-0.965 5.455-3.683 6.125z" />
<glyph unicode="&#xe61d;" d="M196.736 296.547l1.388-1.339c1.172-1.122 29.203-27.539 73.738-27.539 16.581 0 33.368 3.731 49.92 11.087l2.865 1.27v48.493l-0.108 1.034c-0.719 3.397-4.47 9.137-13.853 9.137-5.809 0-13.164-2.264-21.907-6.755-0.286 0.404-0.63 0.896-1.024 1.487-7.227 10.978-34.107 18.649-53.711 18.649-13.203 0-22.528-3.338-26.978-9.64-11.815-16.728-10.506-42.87-10.447-43.973l0.118-1.91zM214.902 336.788c2.491 3.525 9.482 5.553 19.161 5.553 19.544 0 41.462-7.867 45.706-14.317 2.904-4.392 5.199-6.942 8.33-6.942 1.368 0 2.619 0.532 3.555 1.418 10.003 5.337 15.862 6.469 19.043 6.469 3.003 0 4.047-0.985 4.352-1.359v-41.197c-14.395-5.986-28.899-9.019-43.185-9.019-35.19 0-59.638 18.52-65.674 23.591-0.040 6.036 0.561 24.251 8.714 35.8zM368.010 270.72c-2.284 3.781-7.149 5.701-14.582 5.701-5.346-0.030-10.614-0.67-15.714-1.3l-0.985-0.128c-2.934-0.355-5.858-0.798-8.773-1.349l-1.123-0.354c-0.738-0.354-1.664-0.886-2.806-1.555-5.711-3.377-19.082-11.284-53.031-11.284-3.249 0-6.666 0.069-10.072 0.207-43.411 3.83-64.719 26.978-64.925 27.205l-1.25 1.408-1.871 0.187c-0.305 0.030-7.729 0.709-16.62 0.709-21.041 0-31.577-3.732-33.152-11.717-2.688-13.617 8.005-26.407 32.286-39.020v-47.379c-4.519-1.91-7.709-6.42-7.709-11.688v-23.916c0-6.991 5.613-12.662 12.514-12.662s12.514 5.671 12.514 12.662v23.916c0 5.258-3.19 9.767-7.709 11.688v42.733c7.601-3.387 15.439-6.292 23.483-8.586v-62.257c-4.519-1.91-7.709-6.42-7.709-11.688v-23.926c0-6.971 5.613-12.652 12.514-12.652s12.514 5.681 12.514 12.652v23.926c0 5.258-3.19 9.767-7.709 11.688v59.786c10.575-2.392 21.386-3.791 32.246-4.253v-75.293c-4.519-1.901-7.709-6.41-7.709-11.688v-23.916c0-6.981 5.602-12.662 12.514-12.662s12.515 5.681 12.515 12.662v23.916c0 5.267-3.19 9.767-7.709 11.688v75.156c6.745 0.079 13.479 0.493 20.037 1.349 4.204 0.561 8.054 1.221 11.963 1.861v-55.404c-4.519-1.901-7.709-6.41-7.709-11.678v-23.926c0-6.981 5.603-12.652 12.514-12.652 6.892 0 12.514 5.671 12.514 12.652v23.926c0 5.258-3.19 9.757-7.709 11.678v57.147c9.787 1.95 18.629 4.234 26.329 6.882v-44.269c-4.519-1.91-7.709-6.42-7.709-11.688v-23.926c0-6.971 5.603-12.652 12.514-12.652 6.892 0 12.514 5.681 12.514 12.652v23.926c0 5.258-3.18 9.767-7.7 11.678v48.010c15.055 6.617 25.137 14.976 30.287 25.265 2.462 4.963 1.477 8.478 0.216 10.555zM183.099 156.445c0-1.625-1.299-2.934-2.895-2.934s-2.905 1.31-2.905 2.934v23.916c0 1.615 1.299 2.944 2.905 2.944s2.895-1.329 2.895-2.944v-23.916zM216.192 128.335c0-1.615-1.299-2.925-2.905-2.925-1.595 0-2.895 1.31-2.895 2.925v23.926c0 1.615 1.299 2.944 2.895 2.944 1.605 0 2.905-1.329 2.905-2.944v-23.926zM258.048 108.584c0-1.615-1.3-2.925-2.905-2.925-1.595 0-2.905 1.31-2.905 2.925v23.916c0 1.625 1.31 2.944 2.905 2.944 1.605 0 2.905-1.32 2.905-2.944v-23.916zM299.638 131.545c0-1.615-1.29-2.934-2.895-2.934s-2.904 1.32-2.904 2.934v23.926c0 1.615 1.3 2.934 2.904 2.934s2.895-1.32 2.895-2.934v-23.926zM335.557 151.296c0-1.615-1.29-2.925-2.895-2.925s-2.904 1.31-2.904 2.925v23.926c0 1.625 1.3 2.944 2.904 2.944s2.895-1.32 2.895-2.944v-23.926zM359.188 264.576c-4.568-9.108-14.779-16.611-30.139-22.548h-1.192v-0.443c-12.859-4.825-29.115-8.625-49.123-11.254-6.803-0.896-13.814-1.349-20.834-1.349-25.374 0-50.718 5.731-73.305 16.581-22.823 10.969-33.92 21.672-32.108 30.888 0.019 0.029 2.816 3.987 23.759 3.987 5.987 0 11.363-0.335 14.011-0.541 5.672-5.583 28.397-25.275 70.046-28.938 44.593-1.891 61.587 8.261 68.568 12.387 0.571 0.335 1.053 0.63 1.487 0.866 2.491 0.453 4.992 0.827 7.512 1.133l0.985 0.118c4.825 0.601 9.817 1.211 14.73 1.231 3.535 0 5.376-0.611 6.046-0.994-0.049-0.226-0.168-0.591-0.443-1.123z" />
<glyph unicode="&#xe61e;" d="M233.304 290.993c0.030 0.226 0.049 0.473 0.040 0.719-0.010 0.64-0.030 1.31-0.079 1.969 0 0.344 0 0.541 0 0.64h-0.049c-0.266 2.353-1.299 4.589-4.195 4.372-2.471-0.049-3.486-0.059-3.83-4.51l-0.246-0.010c0.019-0.413 0.069-2.639 0.069-2.639 0-0.187 0.019-0.384 0.040-0.561-0.049-3.171 0.019-7.64 0.128-13.962 0-0.108 0.059-0.207 0.069-0.305-5.376-1.851-10.24-5.031-14.041-9.531-10.781-12.761-9.581-31.143 2.993-45.736 3.22-3.731 3.013-5.947 3.013-5.947-0.394-1.644 0.216-3.397 1.546-4.401 0.758-0.581 1.635-0.847 2.501-0.847 1.27 0 2.52 0.591 3.338 1.693 0.394 0.531 0.64 1.123 0.758 1.733 0.345 1.625 0.798 6.794-4.883 13.381-8.083 9.383-12.12 23.72-2.934 34.59 4.145 4.904 9.915 7.867 16.237 8.36 6.361 0.463 12.475-1.585 17.299-5.8 10.654-9.354 8.773-24.123 2.156-34.639-5.149-8.202-3.151-13.421-2.688-14.385 0.994-2.107 3.535-3.151 5.622-2.127 2.067 1.024 3.013 3.407 2.009 5.524 0 0.019-0.571 2.195 2.077 6.41 10.289 16.335 8.793 34.688-3.741 45.677-6.419 5.622-14.572 8.35-23 7.818-0.108 6.115-0.177 10.122-0.207 12.514zM227.328 209.31c0.226-2.846 4.618-4.844 9.797-4.44 5.169 0.384 9.167 3.033 8.921 5.888-0.226 2.856-4.608 4.844-9.777 4.45-5.179-0.413-9.197-3.043-8.94-5.898zM201.069 260.559c0.207 7.109-1.91 13.873-5.819 19.584 44.367 20.913 47.704 62.503 47.813 64.295 0.197 2.934-1.979 5.465-4.845 5.652-2.806 0.236-5.357-2.019-5.553-4.933-0.030-0.384-2.983-38.361-43.746-56.36-0.433-0.197-0.768-0.502-1.123-0.798-5.179 3.84-11.352 6.036-17.891 6.223-16.699 0.413-29.765-12.051-32.975-31.183-0.808-4.805-2.579-6.085-2.541-6.085-2.097-0.945-3.062-3.456-2.127-5.593 0.925-2.156 3.407-3.112 5.494-2.176 1.349 0.601 5.869 3.288 7.405 12.426 2.058 12.298 10.24 24.606 24.497 24.103 6.351-0.187 12.249-2.875 16.611-7.582 4.352-4.697 6.646-10.861 6.469-17.339-0.404-14.346-12.859-22.154-25.029-23.542-9.512-1.073-12.229-5.957-12.672-6.931-0.984-2.127-0.167-4.795 1.92-5.799 0.611-0.296 1.24-0.433 1.861-0.433 1.506 0 2.915 0.827 3.603 2.333 0.010 0.019 1.299 1.832 6.203 2.383 18.934 2.166 31.97 14.927 32.443 31.754zM137.659 244.775c-2.038-1.979-0.787-6.705 2.786-10.545 3.554-3.85 8.084-5.357 10.112-3.357 2.029 1.979 0.798 6.705-2.776 10.545-3.565 3.85-8.094 5.357-10.122 3.357zM311.197 327.217c8.497-5.809 13.942-13.44 16.158-22.666 0.581-2.422 2.707-4.057 5.061-4.057 0.404 0 0.827 0.049 1.24 0.158 2.796 0.699 4.51 3.574 3.83 6.419-1.95 8.173-7.109 19.83-20.884 29.253-2.314 1.743-5.553 1.261-7.276-1.073-1.733-2.353-1.27-5.681 1.034-7.443 0.168-0.118 0.453-0.325 0.837-0.591zM344.458 296.133c-0.541 0.492-1.152 0.837-1.812 1.053-0.591 0.207-1.221 0.286-1.851 0.246-0.039 0-0.079 0.010-0.118 0.010h-0.010c-35.003-2.255-54.882-32.581-53.189-81.142 1.182-33.565-5.918-56.399-21.681-69.799-18.846-16.019-50.422-18.786-96.502-8.478-0.030 0.010-0.059 0-0.089 0-0.286 0.059-0.571 0.010-0.857 0.019-1.093 0.039-2.147-0.187-3.023-0.768-0.079-0.049-0.128-0.147-0.207-0.207-0.472-0.354-0.906-0.758-1.24-1.26-0.010-0.019-0.019-0.019-0.030-0.039-0.167-0.246-0.207-0.531-0.315-0.788-0.157-0.335-0.364-0.64-0.443-1.024 0-0.019 0-0.049 0-0.069-0.099-0.483-0.059-0.955-0.019-1.438 0.010-0.207-0.040-0.433 0-0.64 0.069-0.335 0.246-0.64 0.384-0.975 0.118-0.305 0.187-0.63 0.364-0.916 0.118-0.187 0.315-0.315 0.463-0.493 0.296-0.354 0.581-0.719 0.955-0.995 0.019-0.010 0.030-0.039 0.049-0.049 37.317-25.442 75.629-30.543 100.362-30.543 4.253 0 8.113 0.158 11.5 0.374 50.717 3.397 85.928 35.111 99.131 89.305 7.286 29.971 7.7 73.108-31.823 108.613zM366.159 190.139c-12.012-49.349-43.875-78.198-89.698-81.27-13.755-0.925-44.849-0.788-78.356 13.627 6.587-0.689 12.928-1.132 18.835-1.132 23.847 0 42.21 5.651 55.562 16.995 18.402 15.665 26.733 41.285 25.423 78.356-1.231 35.072 9.393 58.328 29.282 66.659-11.658-14.661-11.254-37.061-10.781-60.524 0.62-31.941 1.28-64.935-26.279-85.524-1.851-1.398-2.255-4.047-0.906-5.947 0.817-1.123 2.087-1.733 3.377-1.733 0.847 0 1.713 0.256 2.462 0.817 31.045 23.188 30.326 60.042 29.676 92.554-0.531 27.205-0.837 50.688 16.571 61.538 31.704-31.291 31.183-68.362 24.832-94.415z" />
<glyph unicode="&#xe61f;" d="M341.908 136.694c-27.284 0-42.752 9.757-50.904 17.95-10.25 10.289-12.741 21.228-12.613 25.748 0 9.896 5.779 14.336 11.904 19.062 5.849 4.5 13.115 10.082 11.303 19.81-0.64 6.893-8.694 17.29-27.825 15.862-49.438-4.283-89.009-59.806-108.032-86.479-3.603-5.061-7.65-10.752-9.304-12.387-2.058-0.856-3.495-2.846-3.495-5.149 0-3.091 2.57-5.592 5.72-5.592 4.549 0 7.079 3.535 16.472 16.728 18.029 25.285 55.542 77.912 99.584 81.733 12.062 0.965 15.35-4.608 15.557-6.203 0.581-3.141-0.985-4.874-7.060-9.531-6.863-5.288-16.266-12.514-16.266-27.707-0.226-8.615 4.589-22.37 15.862-33.704 9.688-9.718 27.815-21.317 59.096-21.317 3.161 0 5.721 2.501 5.721 5.592 0 3.082-2.56 5.583-5.721 5.583zM175.192 187.254c3.161 0 5.72 2.511 5.72 5.592 0 40.488 33.684 73.442 75.087 73.442s75.096-32.955 75.096-73.442c0-8.152-1.368-16.168-4.037-23.818-1.024-2.914 0.571-6.095 3.555-7.109 0.611-0.197 1.24-0.296 1.851-0.296 2.383 0 4.608 1.457 5.425 3.791 3.072 8.822 4.657 18.048 4.657 27.431 0 46.671-38.824 84.637-86.538 84.637s-86.528-37.957-86.528-84.637c-0.010-3.091 2.55-5.592 5.711-5.592zM256.788 291.101c3.161 0 5.721 2.501 5.721 5.592v20.195c0 3.091-2.56 5.592-5.721 5.592-3.151 0-5.711-2.501-5.711-5.592v-20.195c0-3.091 2.56-5.592 5.711-5.592zM328.517 261.405c1.457 0 2.925 0.542 4.047 1.635l14.602 14.277c2.235 2.195 2.235 5.731 0 7.916-2.245 2.186-5.868 2.186-8.094 0l-14.592-14.277c-2.245-2.196-2.245-5.731 0-7.917 1.113-1.093 2.579-1.635 4.037-1.635zM378.427 201.994h-20.657c-3.151 0-5.721-2.511-5.721-5.592 0-3.091 2.57-5.592 5.721-5.592h20.657c3.151 0 5.711 2.501 5.711 5.592 0 3.082-2.56 5.592-5.711 5.592zM159.96 197.947c0 3.101-2.56 5.592-5.72 5.592h-20.657c-3.151 0-5.721-2.491-5.721-5.592 0-3.082 2.57-5.583 5.721-5.583h20.657c3.161-0.010 5.72 2.491 5.72 5.583zM180.559 264.133c1.123-1.093 2.589-1.644 4.047-1.644s2.924 0.551 4.047 1.644c2.235 2.195 2.235 5.731 0 7.916l-14.602 14.287c-2.245 2.186-5.858 2.186-8.084 0-2.245-2.186-2.245-5.731 0-7.916l14.592-14.287zM293.485 283.658c0.719-0.286 1.457-0.423 2.195-0.423 2.255 0 4.372 1.29 5.288 3.456l7.906 18.659c1.211 2.865-0.187 6.134-3.091 7.315-2.944 1.201-6.272-0.177-7.483-3.023l-7.906-18.668c-1.211-2.865 0.177-6.134 3.091-7.315zM371.594 237.105c2.914 1.181 4.303 4.46 3.091 7.316-1.211 2.865-4.559 4.214-7.483 3.032l-19.082-7.729c-2.925-1.181-4.313-4.46-3.091-7.306 0.916-2.156 3.043-3.456 5.288-3.456 0.728 0 1.467 0.138 2.195 0.423l19.082 7.72zM141.017 238.543l19.082-7.739c0.719-0.286 1.457-0.423 2.196-0.423 2.255 0 4.371 1.299 5.287 3.456 1.211 2.856-0.187 6.134-3.091 7.315l-19.082 7.729c-2.915 1.191-6.272-0.177-7.483-3.032-1.201-2.856 0.177-6.134 3.091-7.306zM212.51 287.272c0.916-2.147 3.042-3.446 5.287-3.446 0.728 0 1.467 0.138 2.186 0.423 2.924 1.181 4.313 4.46 3.091 7.306l-7.906 18.659c-1.211 2.856-4.559 4.214-7.483 3.032-2.915-1.191-4.303-4.46-3.091-7.315l7.917-18.659z" />
<glyph unicode="&#xe620;" d="M304.089 110.818c-32.365 2.392-42.26 14.818-42.211 19.151 0 0-0.118 36.135 0 58.683 0.069 12.751 7.207 18.304 17.113 25.994 4.874 3.781 9.915 7.709 14.553 12.918 31.606 35.446 17.674 81.418 10.181 106.102-1.24 4.125-2.324 7.69-2.875 10.211-0.64 3.003-3.643 4.923-6.666 4.264-3.043-0.64-4.982-3.594-4.322-6.597 0.63-2.954 1.782-6.705 3.091-11.067 6.863-22.627 19.623-64.758-7.867-95.587-3.949-4.46-8.576-8.054-13.056-11.52-5.888-4.579-11.885-9.236-16.019-15.665-4.145 6.43-10.142 11.087-16.040 15.665-4.47 3.476-9.098 7.070-13.056 11.52-27.49 30.828-14.72 72.96-7.857 95.587 1.32 4.352 2.462 8.103 3.101 11.067 0.65 3.003-1.29 5.957-4.322 6.597-3.053 0.65-6.026-1.26-6.675-4.264-0.552-2.52-1.635-6.085-2.875-10.21-7.483-24.685-21.416-70.656 10.181-106.093 4.637-5.218 9.679-9.147 14.563-12.928 9.905-7.69 17.043-13.243 17.113-25.994 0.118-22.538 0-58.673 0-58.772 0.059-4.253-9.846-16.67-42.221-19.072-3.053-0.226-5.357-2.826-5.189-5.839 0.167-3.023 2.806-5.386 5.809-5.248 49.733 1.674 94.483 0.019 94.927 0 0.079-0.010 0.147-0.010 0.216-0.010 2.964 0 5.435 2.294 5.603 5.238 0.168 3.033-2.147 5.632-5.199 5.868zM255.36 111.577h-5.917c2.639 1.792 4.815 3.692 6.568 5.661 1.752-1.969 3.938-3.88 6.577-5.671-2.344 0.010-4.746 0.010-7.227 0.010zM255.665 229.189c33.309 0 33.231 51.347 33.073 58.112h-65.496c0 0.010-0.749-58.112 32.423-58.112z" />
<glyph unicode="&#xe621;" d="M256 470.016l-246.085-246.016 246.085-246.016 246.075 246.016-246.075 246.016z" />
<glyph unicode="&#xe622;" d="M256 456.094l232.153-232.094-232.153-232.094-232.153 232.094 232.153 232.094zM256 470.016l-246.085-246.016 246.085-246.016 246.075 246.016-246.075 246.016z" />
<glyph unicode="&#xe623;" d="M234.466 118.193l3.338-0.344c2.215-0.207 3.368-0.965 5.258-2.195 2.678-1.772 6.361-4.155 12.957-4.175h0.010c6.597 0 10.269 2.422 12.938 4.175 2.048 1.349 3.279 2.156 6.006 2.264l3.623 0.138 1.438 3.288c10.339 23.483 16.443 63.389 16.325 106.713-0.168 64.040-14.080 128.867-40.409 128.867-26.319-0.079-39.916-64.995-39.749-129.083 0.118-43.343 6.419-83.19 16.886-106.614l1.379-3.033zM284.839 228.027c0.108-40.005-5.139-76.682-14.11-99.121-3.731-0.808-6.203-2.422-8.123-3.692-0.079-0.059-0.138-0.099-0.207-0.138l-0.601 216.99c10.772-11.668 22.882-53.553 23.040-114.038zM250.25 342.046l0.611-217.738c-0.453 0.266-0.925 0.561-1.438 0.906-1.782 1.171-3.899 2.541-6.912 3.387-9.147 22.361-14.621 59.116-14.73 99.279-0.167 60.505 11.737 102.449 22.469 114.166zM333.883 102.518c-3.111 0-4.392 0.866-6.518 2.284-2.668 1.772-6.331 4.214-12.938 4.214-6.637 0-10.289-2.442-12.957-4.214-2.117-1.428-3.407-2.284-6.509-2.284s-4.392 0.866-6.509 2.284c-2.668 1.772-6.331 4.214-12.957 4.214-6.616 0-10.269-2.442-12.938-4.214-2.117-1.428-3.407-2.284-6.498-2.284-3.101 0.019-4.381 0.866-6.518 2.284-2.668 1.792-6.331 4.214-12.947 4.214s-10.28-2.422-12.947-4.214c-2.127-1.428-3.407-2.284-6.518-2.284-3.101 0-4.392 0.866-6.518 2.284-2.668 1.792-6.331 4.214-12.947 4.214-6.637 0-10.299-2.422-12.968-4.214-2.137-1.428-3.427-2.284-6.538-2.284-3.19 0-5.77-2.56-5.77-5.711 0-3.171 2.579-5.731 5.77-5.731 6.637 0 10.299 2.442 12.968 4.234 2.137 1.408 3.417 2.264 6.538 2.264 3.101 0 4.381-0.866 6.508-2.264 2.668-1.792 6.341-4.234 12.958-4.234 6.637 0 10.289 2.442 12.958 4.234 2.127 1.408 3.407 2.264 6.508 2.264s4.392-0.866 6.518-2.264c2.668-1.792 6.321-4.234 12.947-4.234 6.616 0 10.269 2.442 12.938 4.234 2.127 1.408 3.407 2.264 6.498 2.264 3.101-0.019 4.392-0.866 6.518-2.284 2.668-1.772 6.331-4.214 12.947-4.214s10.279 2.442 12.947 4.214c2.127 1.428 3.407 2.284 6.518 2.284 3.091 0 4.372-0.866 6.498-2.284 2.668-1.772 6.331-4.214 12.957-4.214 3.18 0 5.77 2.56 5.77 5.711 0 3.171-2.589 5.731-5.77 5.731z" />
<glyph unicode="&#xe624;" d="M303.183 207.724c-11.451 0-21.012-7.336-23.788-18.255-0.138-0.502-0.207-1.014-0.266-1.654l-0.079-0.67c-0.216-1.782 0.719-3.515 2.344-4.293 0.581-0.266 1.171-0.404 1.772-0.404 1.123 0 2.235 0.463 3.033 1.31 5.149 5.524 7.434 6.755 11.284 7.503 1.664 0.325 3.318 0.483 4.923 0.483 5.77 0 11.373-2.038 17.113-6.252 3.555-2.619 6.735-6.036 9.964-10.772 0.788-1.152 2.077-1.822 3.426-1.822 0.483 0 0.965 0.089 1.438 0.276 1.772 0.64 2.885 2.442 2.668 4.332l-0.019 0.246c-0.029 0.433-0.079 0.877-0.168 1.3-2.954 14.493-15.163 26.171-29.686 28.367-1.3 0.197-2.639 0.305-3.958 0.305zM285.243 215.040c1.526-0.483 3.082-0.728 4.657-0.728 4.815 0 9.315 2.383 12.022 6.37 3.003 4.392 3.998 11.944 0.394 16.483-0.837 1.064-2.117 1.674-3.456 1.674-0.079 0-0.158 0-0.226-0.010-1.428-0.069-2.728-0.817-3.495-2.038-2.284-3.574-3.899-4.963-6.163-5.278-0.276-0.040-0.591-0.059-0.877-0.059-2.137 0-4.155 1.201-6.922 3.249-0.768 0.581-1.693 0.876-2.639 0.876-0.483 0-0.965-0.079-1.438-0.246-1.378-0.472-2.432-1.605-2.826-3.013l-0.216-0.808-0.099-0.335c-0.158-0.531-0.207-1.083-0.158-1.635 0.64-6.755 5.13-12.456 11.441-14.503zM378.437 265.275c-0.709 2.432-1.536 4.845-2.334 7.178l-1.034 3.072c-0.877 2.629-2.806 4.825-5.317 6.016-2.501 1.181-5.464 1.29-7.995 0.305-29.125-11.185-54.39-13.509-79.045-7.217-2.728 0.719-5.504-0.955-6.193-3.692-0.699-2.737 0.955-5.524 3.673-6.213 26.693-6.833 54.075-4.382 85.199 7.572l1.063-3.161c0.748-2.186 1.517-4.451 2.195-6.725 7.582-26.112 6.656-50.776-2.767-73.304-7.149-17.073-17.368-29.293-31.272-37.346-11.057-6.39-21.849-7.837-32.216-4.342-7.798 2.629-14.976 7.729-21.928 15.596-6.085 6.882-11.027 14.592-15.114 23.542-1.171 2.579-4.195 3.692-6.764 2.541-2.57-1.182-3.683-4.214-2.511-6.784 4.5-9.905 9.984-18.432 16.758-26.093 8.163-9.236 16.768-15.291 26.309-18.501 4.726-1.595 9.6-2.392 14.464-2.392 8.615 0 17.398 2.55 26.093 7.591 15.901 9.216 27.539 23.030 35.565 42.24 10.358 24.714 11.411 51.683 3.171 80.118zM340.815 211.171c6.252 2.688 10.349 9.285 9.521 15.34-0.197 1.457-1.093 2.718-2.402 3.377-0.611 0.315-1.3 0.472-1.979 0.472-0.738 0-1.477-0.187-2.156-0.571-3.043-1.703-5.809-2.57-8.231-2.57-4.195 0-7.749 2.678-10.88 8.192-0.748 1.329-2.137 2.176-3.653 2.245-0.059 0-0.128 0-0.197 0-1.438 0-2.806-0.719-3.633-1.93-3.584-5.219-2.747-13.42 1.94-19.072 3.653-4.411 8.97-6.942 14.592-6.942 2.462 0.010 4.844 0.502 7.079 1.457zM237.371 263.109c-1.851 0.738-3.732 1.112-5.593 1.112-3.476 0-6.902-1.29-10.131-3.85-6.922-5.494-9.285-15.636-5.258-22.597 0.453-0.787 1.299-1.27 2.206-1.27h0.040c0.925 0.010 1.762 0.522 2.206 1.339 4.077 7.582 8.261 11.155 13.332 11.155 2.668 0 5.573-0.984 8.842-2.905 0.404-0.237 0.847-0.364 1.299-0.364 0.413 0 0.837 0.108 1.201 0.305 0.787 0.433 1.299 1.24 1.339 2.137l0.049 0.728c0.059 0.512 0.099 1.054-0.010 1.674-1.083 6.223-4.283 10.437-9.521 12.534zM271.527 279.591c-0.65 5.475-1.752 10.506-2.925 15.832-0.522 2.422-1.024 4.677-1.467 6.971-0.758 3.88-3.328 7.237-6.863 8.98-1.733 0.866-3.683 1.32-5.632 1.32-1.959 0-3.919-0.453-5.672-1.329-14.090-7.050-28.81-10.466-45.017-10.466l-2.176 0.019c-14.346 0.256-29.48 3.574-49.005 10.781-1.388 0.512-2.875 0.787-4.392 0.787-2.038 0-4.066-0.502-5.869-1.447-3.141-1.635-5.484-4.539-6.419-7.965-0.502-1.851-1.014-3.633-1.517-5.396-1.211-4.204-2.333-8.133-3.249-12.386-6.419-29.617-3.298-57.118 9.265-81.713 8.458-16.581 19.633-28.613 34.137-36.766 8.714-4.904 17.595-7.385 26.427-7.385 11.983 0 23.316 4.47 33.654 13.312 9.846 8.399 17.773 19.023 24.232 32.463 11.353 23.621 15.547 48.66 12.485 74.387zM228.214 180.529c-8.448-7.207-17.555-10.87-27.057-10.87-7.070 0-14.277 2.058-21.435 6.075-12.702 7.158-22.528 17.792-30.050 32.522-11.461 22.44-14.287 47.626-8.379 74.87 0.847 3.919 1.93 7.68 3.072 11.678 0.522 1.822 1.043 3.673 1.565 5.563 0.187 0.689 0.66 1.27 1.29 1.595 0.364 0.197 0.768 0.285 1.172 0.285 0.296 0 0.591-0.049 0.876-0.157 20.627-7.601 36.795-11.117 52.431-11.402l2.255-0.010c17.832 0 34.038 3.771 49.546 11.539 0.355 0.177 0.758 0.266 1.142 0.266s0.768-0.079 1.113-0.256c0.709-0.354 1.221-1.024 1.378-1.811 0.483-2.412 0.995-4.766 1.507-7.089 1.103-5.11 2.156-9.925 2.757-14.947 2.836-23.759-1.043-46.877-11.54-68.736-5.819-12.13-12.899-21.651-21.642-29.115zM240.738 233.974c-0.266 0.089-0.552 0.128-0.817 0.128-0.925 0-1.811-0.502-2.255-1.359-7.178-13.725-21.357-22.587-36.115-22.587-10.536 0-19.928 4.51-26.457 12.682-0.502 0.62-1.231 0.955-1.989 0.955-0.335 0-0.66-0.059-0.984-0.197-1.054-0.443-1.674-1.536-1.536-2.668 1.752-14.474 15.921-26.26 31.577-26.26 1.487 0 3.003 0.118 4.5 0.344 18.501 2.846 32.552 17.024 35.781 36.096 0.197 1.25-0.522 2.452-1.703 2.865zM195.83 234.998c0.482-0.679 1.261-1.073 2.077-1.073h0.069c0.847 0.019 1.635 0.472 2.077 1.191 3.279 5.189 2.393 13.361-2.018 18.6-3.525 4.194-8.635 6.429-14.021 6.429-2.57 0-5.199-0.512-7.749-1.565-8.083-3.328-13.47-11.648-12.8-19.781 0.079-0.935 0.65-1.752 1.517-2.137 0.325-0.138 0.669-0.207 1.024-0.207 0.552 0 1.113 0.177 1.565 0.531 5.642 4.401 10.516 6.637 14.897 6.637 4.952-0.010 9.265-2.856 13.361-8.625z" />
<glyph unicode="&#xe625;" d="M382.877 173.214l-5.445 20.382c-0.374 2.156-2.107 7.424-10.014 11.707-6.952 3.761-41.491 4.884-58.742 5.209l-8.478 11.471c-1.772 2.403-5.13 2.964-7.582 1.26l-1.979-1.378-1.792 5.357c-0.522 1.546-1.683 2.786-3.19 3.387-1.497 0.611-3.19 0.531-4.618-0.226l-0.266-0.138-0.68 5.435c-0.207 1.605-1.083 3.042-2.432 3.929-1.349 0.886-3.023 1.162-4.559 0.719l-0.059-0.019 3.555 7.877c0.798 1.752 0.63 3.781-0.423 5.376-1.063 1.595-2.806 2.53-4.785 2.471l-4.51-0.148 3.279 8.576c0.709 1.861 0.384 3.948-0.866 5.504s-3.21 2.284-5.189 1.979l-6.301-1.034-19.859 36.056c-0.975 1.763-2.826 2.865-4.845 2.865h-9.186c-3.053 0-5.534-2.491-5.534-5.553 0-3.072 2.471-5.553 5.534-5.553h5.937l20.165-36.627c1.123-2.048 3.427-3.171 5.74-2.787l0.611 0.109-2.806-7.345c-0.66-1.733-0.413-3.692 0.65-5.208 1.073-1.517 2.875-2.442 4.697-2.333l3.938 0.128-4.795-10.624c-0.896-1.969-0.561-4.283 0.837-5.928 1.408-1.644 3.633-2.314 5.701-1.723l5.337 1.517 0.886-6.961c0.216-1.812 1.329-3.387 2.925-4.234 1.615-0.837 3.515-0.837 5.13 0l1.565 0.817 2.067-6.183c0.561-1.664 1.851-2.954 3.495-3.505 1.664-0.541 3.456-0.276 4.884 0.709l3.623 2.521 6.912-9.354c1.024-1.398 2.629-2.225 4.352-2.255 23.867-0.374 52.234-2.009 56.409-3.928 3.565-1.92 4.322-3.702 4.313-3.486 0.029-0.344 0.089-0.68 0.177-1.024l2.826-10.594c-9.531-0.158-19.84-1.762-31.488-3.643-24.536-3.988-58.132-9.452-107.313-4.115-26.811 2.925-76.081 3.437-86.272 3.505l10.368 68.972 81.359 14.73c2.176 0.404 3.909 2.058 4.401 4.234 0.502 2.166-0.345 4.421-2.127 5.74-18.619 13.617-19.318 13.765-21.228 13.864-3.486 1.851-11.746 4.49-28.465 1.674-21.090-3.535-39.168-16.384-39.926-16.925-1.231-0.867-2.038-2.205-2.255-3.692l-17.555-116.785c-0.237-1.605 0.226-3.229 1.27-4.461 1.054-1.231 2.589-1.92 4.195-1.92h21.022c1.989 0 3.821 1.063 4.805 2.786l2.156 3.81 2.6-4.047c1.014-1.585 2.767-2.55 4.648-2.55h14.208c1.821 0 3.515 0.886 4.549 2.383l2.708 3.928 2.245-3.683c1.005-1.644 2.786-2.639 4.716-2.639h17.555c2.403 0 4.539 1.575 5.278 3.88 0.019 0.089 2.934 8.97 9.423 10.053 11.54 1.89 29.637-10.92 35.614-16.029 1.005-0.866 2.284-1.329 3.584-1.329 0.207 0 0.413 0.010 0.62 0.039 1.517 0.177 2.904 0.965 3.82 2.205l3.643 4.933 2.235-3.574c1.073-1.752 3.023-2.767 5.061-2.619l12.514 0.808c2.304 0.158 4.283 1.733 4.943 3.938l0.099 0.325 1.063-1.408c1.132-1.467 2.904-2.264 4.746-2.166l10.024 0.64c1.979 0.138 3.731 1.329 4.608 3.111l2.334 4.815 1.733-1.89c1.428-1.595 3.633-2.205 5.661-1.595l10.811 3.229c2.186 0.65 3.761 2.609 3.928 4.904l0.158 1.94 1.555-1.132c1.625-1.182 3.752-1.389 5.553-0.551l10.831 5.031 14.582 7.67c2.314 1.24 3.456 3.889 2.796 6.4zM159.901 257.359c0.62 1.034 1.438 2.127 2.491 3.239 5.307 5.573 17.457 12.219 45.203 12.219 2.462 0 5.031-0.049 7.72-0.168 1.191-0.778 3.368-2.294 6.016-4.175l-61.43-11.117zM212.017 152.704h-10.811l-5.061 8.281c-0.984 1.595-2.688 2.599-4.559 2.649-1.881 0.128-3.633-0.856-4.707-2.392l-5.878-8.527h-8.3l-5.898 9.226c-1.034 1.635-2.797 2.698-4.795 2.541-1.93-0.039-3.692-1.103-4.657-2.786l-5.090-8.97h-11.382l1.861 12.377c2.983-0.019 47.439-0.335 76.928-2.589-3.761-2.993-6.223-6.912-7.65-9.807zM273.625 158.533l-5.101-6.892c-3.101 2.324-7.503 5.346-12.524 8.084 5.031-0.207 10.053-0.394 14.7-0.394 1.359 0 2.629 0.049 3.958 0.059-0.354-0.296-0.768-0.493-1.034-0.856zM292.913 150.803l-5.386-0.344-4.765 7.69c-0.344 0.561-0.866 0.945-1.368 1.339 5.337 0.168 10.349 0.463 15.192 0.827-0.709-0.659-1.28-1.507-1.565-2.481l-2.107-7.030zM314.417 152.202l-3.87-0.246-5.849 7.661c-0.433 0.571-1.053 0.886-1.644 1.231 6.016 0.561 11.668 1.231 16.955 1.95-0.394-0.413-0.837-0.788-1.093-1.32l-4.5-9.275zM332.859 157.401l-4.884 5.376c-0.394 0.433-0.916 0.659-1.408 0.945 3.731 0.561 7.247 1.123 10.644 1.674l-0.531-6.853-3.82-1.142zM353.005 165.592l-2.589 1.88c3.249 0.493 6.341 0.906 9.285 1.231l-6.695-3.111z" />
<glyph unicode="&#xe626;" d="M256 252.751c-15.862 0-28.761-12.909-28.761-28.751 0-15.853 12.899-28.76 28.761-28.76 15.842 0 28.741 12.909 28.741 28.761 0.010 15.843-12.899 28.751-28.741 28.751zM256 207.744c-8.97 0-16.266 7.296-16.266 16.256s7.296 16.256 16.266 16.256c8.96 0 16.246-7.296 16.246-16.256s-7.276-16.256-16.246-16.256zM246.341 269.47c0-5.327 4.322-9.649 9.659-9.649 5.327 0 9.649 4.322 9.649 9.649 0 5.337-4.322 9.659-9.649 9.659-5.337 0.010-9.659-4.322-9.659-9.659zM256 296.96c11.087 0 20.125 9.029 20.125 20.145 0 11.096-9.039 20.135-20.125 20.135-11.117 0-20.136-9.039-20.136-20.135 0.010-11.116 9.029-20.145 20.136-20.145zM256 324.736c4.214 0 7.631-3.427 7.631-7.631 0-4.224-3.426-7.641-7.631-7.641s-7.631 3.426-7.631 7.641c0 4.214 3.427 7.631 7.631 7.631zM321.832 269.706c5.386 0 10.447 2.087 14.248 5.898 7.848 7.867 7.848 20.637 0 28.485-7.611 7.591-20.884 7.591-28.485 0-7.848-7.857-7.867-20.627 0-28.485 3.791-3.81 8.851-5.898 14.238-5.898zM316.445 295.227c1.438 1.447 3.348 2.245 5.386 2.245s3.958-0.787 5.406-2.245c2.983-2.973 2.983-7.818 0-10.801-2.865-2.885-7.926-2.885-10.811 0-2.964 2.983-2.964 7.827 0.019 10.801zM349.096 244.136c-11.096 0-20.135-9.039-20.135-20.125 0-5.386 2.097-10.437 5.908-14.237s8.861-5.918 14.228-5.918h0.019c11.096 0.019 20.115 9.048 20.115 20.145s-9.019 20.136-20.135 20.136zM349.096 216.369c-2.038 0-3.938 0.788-5.406 2.245-1.438 1.438-2.225 3.348-2.225 5.386 0 4.214 3.426 7.631 7.631 7.631s7.631-3.417 7.631-7.631c0-4.205-3.416-7.631-7.631-7.631zM307.594 172.416c-3.81-3.8-5.908-8.851-5.908-14.228 0-5.406 2.097-10.457 5.908-14.248 3.81-3.81 8.861-5.908 14.228-5.908 5.386 0 10.447 2.097 14.248 5.908s5.888 8.851 5.908 14.228c0 5.386-2.097 10.447-5.908 14.248-7.591 7.591-20.874 7.591-28.475 0zM327.227 152.783c-2.885-2.895-7.926-2.895-10.791-0.010-1.438 1.438-2.255 3.358-2.255 5.416 0 2.038 0.808 3.949 2.255 5.396 1.428 1.438 3.348 2.235 5.386 2.235s3.958-0.798 5.406-2.245 2.255-3.368 2.255-5.396c0-2.048-0.808-3.958-2.255-5.396zM256 151.040c-11.107 0-20.125-9.029-20.125-20.145 0-11.096 9.039-20.115 20.135-20.135 11.106 0 20.125 9.039 20.125 20.135 0 11.116-9.039 20.145-20.136 20.145zM256 123.264c-4.214 0-7.631 3.437-7.631 7.631 0 2.038 0.787 3.958 2.235 5.406 1.447 1.438 3.368 2.235 5.405 2.235 4.214 0 7.631-3.416 7.631-7.631 0-4.214-3.426-7.64-7.641-7.64zM175.931 172.406c-7.838-7.837-7.838-20.618 0-28.485 3.8-3.8 8.851-5.898 14.227-5.898 5.376 0 10.437 2.097 14.238 5.908 7.857 7.848 7.857 20.618 0.010 28.465-7.582 7.611-20.864 7.611-28.475 0.010zM195.574 152.773c-2.885-2.885-7.926-2.885-10.791-0.010-2.983 2.983-2.983 7.827-0.010 10.811 1.438 1.438 3.357 2.245 5.405 2.245s3.958-0.798 5.405-2.245c2.974-2.983 2.964-7.837-0.010-10.801zM183.040 223.981c0.010 5.376-2.077 10.437-5.888 14.238-3.8 3.821-8.862 5.917-14.257 5.917-11.087-0.010-20.115-9.039-20.125-20.136 0-11.106 9.029-20.145 20.136-20.145 5.376 0 10.437 2.097 14.238 5.908 3.8 3.791 5.898 8.851 5.898 14.218zM168.3 218.594c-1.447-1.438-3.357-2.235-5.405-2.235-4.214 0-7.631 3.426-7.631 7.621 0 4.214 3.436 7.641 7.631 7.641 2.048 0 3.958-0.787 5.405-2.245 1.438-1.438 2.235-3.357 2.235-5.405 0-2.019-0.787-3.928-2.235-5.376zM190.168 269.706c5.376 0 10.437 2.087 14.218 5.888 3.81 3.791 5.917 8.832 5.917 14.218 0 5.395-2.088 10.457-5.907 14.267-7.601 7.591-20.845 7.591-28.475 0-7.857-7.857-7.847-20.627 0-28.485 3.81-3.8 8.871-5.888 14.248-5.888zM184.763 295.217c1.447 1.447 3.368 2.245 5.416 2.245 2.038 0 3.958-0.787 5.395-2.235 1.438-1.438 2.235-3.357 2.235-5.405 0-2.048-0.798-3.948-2.255-5.405-2.875-2.865-7.906-2.875-10.791 0.010-2.974 2.983-2.974 7.837 0 10.791zM294.981 249.325c3.771 3.771 3.771 9.886 0 13.656s-9.885 3.781-13.656 0.010c-3.771-3.781-3.771-9.905 0-13.677 3.771-3.761 9.885-3.761 13.656 0.010zM311.139 223.99c0 5.337-4.322 9.659-9.649 9.659-5.346 0-9.669-4.322-9.669-9.659 0-5.327 4.322-9.649 9.669-9.649 5.317 0 9.649 4.322 9.649 9.649zM281.305 198.666c-3.752-3.771-3.752-9.885 0.019-13.656 3.771-3.781 9.885-3.771 13.656 0s3.771 9.885 0 13.656-9.885 3.771-13.676 0zM265.649 178.511c0 5.337-4.322 9.669-9.659 9.669-5.327 0-9.649-4.332-9.649-9.669 0-5.327 4.322-9.639 9.649-9.639 5.337 0 9.659 4.313 9.659 9.639zM217 198.666c-3.771-3.771-3.761-9.885 0.010-13.637 3.771-3.781 9.875-3.791 13.647-0.019s3.771 9.896 0 13.676c-3.771 3.761-9.886 3.761-13.656-0.019zM220.179 224c0 5.327-4.333 9.659-9.659 9.659-5.337 0-9.649-4.333-9.649-9.659 0-5.327 4.313-9.659 9.649-9.659 5.327 0.019 9.649 4.332 9.659 9.659zM230.675 249.334c3.761 3.761 3.761 9.875-0.010 13.656-3.781 3.771-9.886 3.771-13.647 0-3.771-3.781-3.781-9.895-0.010-13.656 3.771-3.781 9.895-3.781 13.666 0z" />
<glyph unicode="&#xe627;" d="M244.294-16.616c-4.072 44.451-30.488 111.57-52.596 146.339-5.608 8.82-14.103 17.781-23.924 28.16-28.137 29.719-66.677 70.4-66.677 145.85 0 90.787 69.422 164.631 154.787 164.631 85.481 0 155.019-73.844 155.019-164.631 0-64.908-35.7-105.821-64.395-138.706-10.728-12.264-20.853-23.878-27.625-35.048-23.203-38.493-49.199-100.632-51.386-146.083l-23.203-0.512zM255.883 445.091c-72.518 0-131.514-63.418-131.514-141.358 0-66.188 32.023-100.003 60.299-129.839 10.194-10.776 19.851-20.945 26.671-31.651 15.244-23.994 32.488-62.138 43.916-99.445 10.822 36.12 27.88 72.96 43.752 99.235 7.796 12.94 18.572 25.274 29.976 38.33 27.509 31.512 58.671 67.212 58.671 123.392-0.024 77.917-59.136 141.336-131.77 141.336zM256.024 245.062c-35.445 0-64.279 29.323-64.279 65.397s28.835 65.397 64.279 65.397c35.445 0 64.303-29.347 64.303-65.397s-28.858-65.397-64.303-65.397zM256.024 352.582c-22.621 0-41.007-18.898-41.007-42.124s18.409-42.123 41.007-42.123 41.030 18.897 41.030 42.123c0 23.226-18.409 42.124-41.030 42.124z" />
</font>
</defs>
</svg>
